<svg id="Layer_1" data-name="Layer 1" xmlns="http://www.w3.org/2000/svg" viewBox="0 0 800 800"><defs><style>.cls-1{fill:#1890ff;}.cls-2{fill:#002766;}.cls-3{fill:#69c0ff;}.cls-4{fill:#fff;}.cls-5{opacity:0.53;}.cls-6,.cls-7{fill:none;stroke:#002766;stroke-miterlimit:10;}.cls-6{stroke-width:0.53px;}.cls-7{stroke-width:1.06px;}.cls-8{fill:#ff9554;}.cls-9{fill:#113569;}.cls-10{fill:#232839;}.cls-11{fill:#113c7a;}.cls-12{fill:#ff7c40;}.cls-13{fill:#e1e8f2;}.cls-14{fill:#ff8654;}.cls-15{fill:#96432a;}.cls-16{fill:#94c3ff;}</style></defs><path class="cls-1" d="M707.75,525.55c48.6,22.93,48.86,60.11.57,83.05L481.64,716.25c-48.29,22.94-126.82,22.94-175.43,0L78.05,608.6c-48.6-22.94-48.86-60.11-.57-83.05L304.16,417.89C352.45,395,431,395,479.59,417.89Z"/><path class="cls-2" d="M708.32,508.47,481.64,616.12c-48.29,22.94-126.82,22.94-175.43,0L78.05,508.47c-24.45-11.54-36.67-26.69-36.62-41.81l-.07,21.42c0,15.13,12.16,30.27,36.62,41.81L306.14,637.55c48.6,22.93,127.14,22.93,175.43,0L708.24,529.89c24-11.39,36-26.3,36-41.23l.08-21.43C744.32,482.16,732.31,497.07,708.32,508.47Z"/><path class="cls-3" d="M707.75,425.42c48.6,22.93,48.86,60.11.57,83.05L481.64,616.12c-48.29,22.94-126.82,22.94-175.43,0L78.05,508.47c-48.6-22.94-48.86-60.11-.57-83.05L304.16,317.76c48.29-22.93,126.82-22.93,175.43,0Z"/><path class="cls-3" d="M742.57,196.59,475.23,70.44c-9.66-4.56-18.42-5-24.74-2L434.8,75.91c6.33-3,15.09-2.58,24.75,2L726.89,204c19.18,9.05,34.67,31,34.61,49l-.44,128.5c0,8.95-3.9,15.25-10.13,18.21l15.68-7.45c6.24-3,10.1-9.26,10.13-18.21l.45-128.5C777.25,227.57,761.75,205.64,742.57,196.59Z"/><path class="cls-2" d="M726.89,204c19.18,9.05,34.67,31,34.61,49l-.44,128.5c-.07,18-15.66,25.28-34.85,16.23L458.87,271.62c-19.18-9.05-34.7-31-34.64-49l.45-128.5c.06-18,15.68-25.27,34.87-16.22Z"/><path class="cls-4" d="M509.54,142.81l14.18,45.75-6.89-4L514,175.27l-16.69-9.63-2.89,6-6.83-3.94L502,138.44Zm-10.4,18.87,13,7.53-6.43-21.15-6.59,13.62"/><path class="cls-4" d="M556.74,191.54a14.93,14.93,0,0,1,2.23,7.28,5.41,5.41,0,0,1-1.59,4.24,5.61,5.61,0,0,1-4.58,1,19.53,19.53,0,0,1-6.94-2.69l-16-9.2.1-37.45,15.21,8.78a32,32,0,0,1,7,5.33,23.38,23.38,0,0,1,4.41,6,13.08,13.08,0,0,1,1.48,5.73q0,3.24-1.85,4.33a6.49,6.49,0,0,1-4.94.33A20.19,20.19,0,0,1,556.74,191.54Zm-6.22,6c1.26-.28,1.9-1.32,1.91-3.12a9.4,9.4,0,0,0-2-5.52,16.86,16.86,0,0,0-5.33-4.7l-8.6-5,0,11.69,8.83,5.1q3.33,1.92,5.22,1.51m-14-34,0,10.72,8.09,4.66q3.21,1.86,5,1.53c1.2-.22,1.81-1.19,1.81-2.92a8.37,8.37,0,0,0-1.79-5,16.22,16.22,0,0,0-5-4.33l-8.09-4.66"/><path class="cls-4" d="M580.35,248.51l-.07,23.75c0,3.06-.72,5.24-2.15,6.54a6.64,6.64,0,0,1-5.69,1.46,22.29,22.29,0,0,1-7.86-3,36.48,36.48,0,0,1-7.83-6.09,28.86,28.86,0,0,1-5.58-8,20.66,20.66,0,0,1-2-9l.07-23.76,6.53,3.78-.06,23.86A13.61,13.61,0,0,0,558,266a19.56,19.56,0,0,0,6.62,6q4.3,2.49,6.69,1.71t2.4-5.05l.06-23.86Z"/><path class="cls-4" d="M602,205a27.38,27.38,0,0,1,2.67,11.42c0,3.66-.92,6.43-2.73,8.33a9,9,0,0,1-7.39,2.58,23.49,23.49,0,0,1-10.31-3.49A42.45,42.45,0,0,1,574,215.51a43.17,43.17,0,0,1-7.38-11.11,27.63,27.63,0,0,1-2.7-11.46q0-5.5,2.76-8.29a9.18,9.18,0,0,1,7.41-2.54,23.24,23.24,0,0,1,10.25,3.46A44.55,44.55,0,0,1,602,205Zm-5.81,13.83c1.16-1.43,1.76-3.52,1.77-6.29a21.35,21.35,0,0,0-1.73-8.28,27.45,27.45,0,0,0-4.84-7.6,28.55,28.55,0,0,0-7-5.74,15.57,15.57,0,0,0-7.06-2.4,5.66,5.66,0,0,0-4.86,2c-1.18,1.41-1.76,3.5-1.77,6.27a21.07,21.07,0,0,0,1.73,8.31,27.16,27.16,0,0,0,4.83,7.64,28,28,0,0,0,7,5.77,15.35,15.35,0,0,0,7.06,2.38,5.73,5.73,0,0,0,4.87-2"/><path class="cls-4" d="M601.69,260.34a31.5,31.5,0,0,1,9.48,8.21,18.63,18.63,0,0,1,4.09,9.83L608,274.2a9.29,9.29,0,0,0-2-4.7,16.17,16.17,0,0,0-5-4.33c-1.87-1.08-3.4-1.52-4.59-1.3s-1.78,1.16-1.79,2.85a6.42,6.42,0,0,0,1.11,3.47,18.64,18.64,0,0,0,2.84,3.4c1.15,1.09,2.71,2.46,4.7,4.12q3.94,3.3,6.44,5.77a24.37,24.37,0,0,1,4.24,5.6,13.6,13.6,0,0,1,1.74,6.69,5.34,5.34,0,0,1-6.43,5.77,18.59,18.59,0,0,1-7.37-2.73,35,35,0,0,1-7.23-5.49,27.34,27.34,0,0,1-5-6.66,14.29,14.29,0,0,1-1.81-6.71l7,4a10.7,10.7,0,0,0,2,5.16,15.42,15.42,0,0,0,5.07,4.49c2.25,1.3,4,1.81,5.28,1.52s1.9-1.26,1.91-2.87a7,7,0,0,0-1.17-3.76A18.27,18.27,0,0,0,605,285q-1.76-1.66-4.84-4.2c-2.6-2.15-4.72-4-6.34-5.63a24.61,24.61,0,0,1-4.15-5.5,13.19,13.19,0,0,1-1.7-6.59q0-3.24,1.73-4.67a5.87,5.87,0,0,1,4.83-.94A22.19,22.19,0,0,1,601.69,260.34Z"/><path class="cls-4" d="M642.22,219.48l-.06,23.75c0,3.06-.73,5.24-2.14,6.54a6.67,6.67,0,0,1-5.7,1.46,22.22,22.22,0,0,1-7.86-3,36.48,36.48,0,0,1-7.83-6.09,28.86,28.86,0,0,1-5.58-8,20.63,20.63,0,0,1-2-8.95l.06-23.76,6.55,3.78-.07,23.87a13.55,13.55,0,0,0,2.36,7.78,19.46,19.46,0,0,0,6.62,6q4.31,2.49,6.69,1.71t2.4-5l.07-23.87Z"/><polygon class="cls-4" points="676.47 239.25 676.46 244.26 665.85 238.13 665.75 270.57 659.22 266.8 659.31 234.36 648.63 228.2 648.65 223.19 676.47 239.25"/><path class="cls-2" d="M86.13,202.45a5.75,5.75,0,0,1,1.4,4.18,13.91,13.91,0,0,1-1.25,5.49,20.81,20.81,0,0,1-4,6,30.14,30.14,0,0,1-7.14,5.52l-6.37,3.68,0,13.4L63,244l-.1-33,12.15-7a18.59,18.59,0,0,1,6.86-2.65A4.83,4.83,0,0,1,86.13,202.45ZM80,215a8.56,8.56,0,0,0,1.61-4.91q0-5.42-6.55-1.64l-6.37,3.68,0,10.78,6.37-3.68A14.82,14.82,0,0,0,80,215"/><path class="cls-2" d="M109.52,203.47l8.74,8.65-6.88,4-8.14-8.54-4.4,2.54,0,13.21-5.77,3.34-.09-33,12.14-7A18.2,18.2,0,0,1,112,184a4.89,4.89,0,0,1,4.21,1.14,5.78,5.78,0,0,1,1.41,4.18,15.24,15.24,0,0,1-2,7A23.5,23.5,0,0,1,109.52,203.47Zm-10.69,2.31,6.37-3.68a14.21,14.21,0,0,0,4.88-4.34,9,9,0,0,0,1.64-5c0-1.71-.55-2.74-1.63-3.08s-2.72.12-4.92,1.39l-6.37,3.68,0,11.07"/><path class="cls-2" d="M156.64,164.64Q159,167.12,159,172a24.29,24.29,0,0,1-2.35,10.1,39.24,39.24,0,0,1-15.56,17.19,20.52,20.52,0,0,1-9,3.05,8,8,0,0,1-6.54-2.26c-1.61-1.66-2.42-4.1-2.43-7.34a24,24,0,0,1,2.38-10.08A39.44,39.44,0,0,1,141,165.46a20.62,20.62,0,0,1,9.09-3.07A8,8,0,0,1,156.64,164.64Zm-5,18.07a18.74,18.74,0,0,0,1.52-7.33,8.49,8.49,0,0,0-1.56-5.52,5,5,0,0,0-4.28-1.76,13.88,13.88,0,0,0-6.23,2.12,25,25,0,0,0-6.22,5.07,23.73,23.73,0,0,0-4.26,6.69,18.44,18.44,0,0,0-1.53,7.3,8.58,8.58,0,0,0,1.56,5.55,5,5,0,0,0,4.29,1.81,13.59,13.59,0,0,0,6.23-2.09,25.2,25.2,0,0,0,6.22-5.09,24.49,24.49,0,0,0,4.26-6.75"/><path class="cls-2" d="M180.7,142.56q5.61-3.24,10-3.18a6.87,6.87,0,0,1,6.37,3.68l-6.93,4a4.22,4.22,0,0,0-3.8-1.71,13,13,0,0,0-5.63,2,25.62,25.62,0,0,0-6.22,5.07,24.38,24.38,0,0,0-4.26,6.7,18.52,18.52,0,0,0-1.52,7.3,8.46,8.46,0,0,0,1.56,5.53,5.07,5.07,0,0,0,4.28,1.78,13.62,13.62,0,0,0,6.23-2.1,23.08,23.08,0,0,0,5.62-4.52,20.43,20.43,0,0,0,3.78-6.08l6.93-4a32.7,32.7,0,0,1-6.33,11,38.43,38.43,0,0,1-10,8.33,20.59,20.59,0,0,1-9.07,3.07,8.1,8.1,0,0,1-6.52-2.26c-1.61-1.64-2.41-4.08-2.42-7.31a24,24,0,0,1,2.38-10.08,39.28,39.28,0,0,1,15.53-17.16Z"/><polygon class="cls-2" points="223.21 118.4 223.22 122.82 209.55 130.71 209.58 140.41 221.72 133.4 221.74 137.81 209.59 144.82 209.62 154.94 223.29 147.05 223.3 151.48 203.87 162.69 203.78 129.62 223.21 118.4"/><path class="cls-2" d="M241.62,107.39q5.12-3,8.38-2.44t3.63,4.5l-6.37,3.67a2.06,2.06,0,0,0-1.83-2q-1.68-.32-4.41,1.26a13.2,13.2,0,0,0-4,3.52,7.07,7.07,0,0,0-1.56,4.33,1.86,1.86,0,0,0,1,1.93,4.5,4.5,0,0,0,2.51.09,40.66,40.66,0,0,0,4.16-1.15,42.86,42.86,0,0,1,5.7-1.49,5.17,5.17,0,0,1,3.74.62c1,.66,1.56,2,1.56,4.12a13.17,13.17,0,0,1-1.43,5.59,23.41,23.41,0,0,1-4.19,6A27.72,27.72,0,0,1,242,141a19.46,19.46,0,0,1-6.38,2.51,5.64,5.64,0,0,1-4.46-.73c-1.09-.8-1.63-2.15-1.64-4.05l6.17-3.57a2.56,2.56,0,0,0,1.82,2.49q1.59.45,4.47-1.22a14.55,14.55,0,0,0,4.66-4,7.71,7.71,0,0,0,1.65-4.46c0-1.11-.35-1.81-1-2.11a4.29,4.29,0,0,0-2.58-.13,42.67,42.67,0,0,0-4.29,1.24,40.17,40.17,0,0,1-5.59,1.49,5,5,0,0,1-3.68-.62c-1-.64-1.52-2-1.53-4.06a13,13,0,0,1,1.51-5.86,21.77,21.77,0,0,1,4.24-5.74A30.37,30.37,0,0,1,241.62,107.39Z"/><path class="cls-2" d="M272.18,89.74c3.4-2,6.2-2.77,8.38-2.43s3.39,1.84,3.64,4.49l-6.38,3.68a2.1,2.1,0,0,0-1.83-2q-1.67-.31-4.4,1.26a13.15,13.15,0,0,0-4,3.53,7.15,7.15,0,0,0-1.56,4.33q0,1.51,1,1.92a4.4,4.4,0,0,0,2.51.1,39.34,39.34,0,0,0,4.16-1.16,43.68,43.68,0,0,1,5.69-1.48,5.17,5.17,0,0,1,3.76.62c1,.65,1.54,2,1.55,4.12a13.17,13.17,0,0,1-1.43,5.59,23.53,23.53,0,0,1-4.18,6,28.07,28.07,0,0,1-6.51,5.1,19.46,19.46,0,0,1-6.37,2.52,5.68,5.68,0,0,1-4.47-.73,4.77,4.77,0,0,1-1.63-4.06l6.18-3.56A2.55,2.55,0,0,0,268,120c1.06.31,2.56-.1,4.48-1.21a14.52,14.52,0,0,0,4.65-4,7.63,7.63,0,0,0,1.67-4.46c0-1.1-.36-1.81-1.05-2.1a4.25,4.25,0,0,0-2.59-.13,41.3,41.3,0,0,0-4.27,1.23,41.27,41.27,0,0,1-5.6,1.5,5.06,5.06,0,0,1-3.68-.62c-1-.65-1.52-2-1.53-4.06a13.15,13.15,0,0,1,1.5-5.87,22.16,22.16,0,0,1,4.25-5.73A30.49,30.49,0,0,1,272.18,89.74Z"/><path class="cls-2" d="M257.71,223v4.79c0,2.82,3.74,4.58,6.73,3.17l27.66-13a3.62,3.62,0,0,0,2.25-3.18V210c0-2.82-3.73-4.59-6.72-3.18l-27.67,13A3.59,3.59,0,0,0,257.71,223Z"/><path class="cls-2" d="M170.1,287.83v4.79c0,2.82,3.72,4.58,6.71,3.18l115.27-54a3.61,3.61,0,0,0,2.25-3.18v-4.79c0-2.82-3.72-4.59-6.71-3.19l-115.27,54A3.6,3.6,0,0,0,170.1,287.83Z"/><g class="cls-5"><path class="cls-2" d="M217.61,313.21V318c0,2.82,3.72,4.58,6.71,3.18l67.74-31.73a3.62,3.62,0,0,0,2.26-3.18v-4.8c0-2.82-3.73-4.58-6.72-3.18L219.86,310A3.6,3.6,0,0,0,217.61,313.21Z"/></g><path class="cls-2" d="M188,303.27v4.8c0,2.82,3.73,4.58,6.72,3.18l97.39-45.63a3.61,3.61,0,0,0,2.26-3.18v-4.79c0-2.82-3.73-4.58-6.72-3.18L190.22,300.1A3.6,3.6,0,0,0,188,303.27Z"/><polyline class="cls-6" points="74 318.97 74 383.24 133.35 414.77"/><ellipse class="cls-7" cx="73.63" cy="314.43" rx="7.05" ry="5.76"/><path class="cls-8" d="M355.63,364.07s4.46,5.72,3.82,7.8-3.82-1-3.82-1,1,6.76-1.27,8.32-3.18-2.86-3.18-2.86a4.84,4.84,0,0,1-5.73-.78c-2.55-2.6-1.91-8.32.64-11.7S355.63,364.07,355.63,364.07Z"/><path class="cls-9" d="M370.8,267s-11.88-.35-17.4,13.17-7.63,34.68-8.48,40.92-1.17,41-.74,42.73c.42,2.08,8.06,5.55,12.72.69,3.4-6.24,3.29-33.37,7.11-43.77s13.15-36.75,13.58-44S370.8,267,370.8,267Z"/><ellipse class="cls-1" cx="389.67" cy="464.48" rx="77.08" ry="40.02"/><path class="cls-10" d="M367.09,455.38c-3.16,1.24-5.06,4-4.72,6.81.21,1.74.5,3.37.89,3.76.89.9,5.23,2.53,9.55.43s6.7-5.45,8.58-8.17,5.24-6,5.7-7.94-2.25-3.59-4.74-3.15c-2.13.38-11.05,5.88-13.54,7.44a9.17,9.17,0,0,1-1.44.71Z"/><path class="cls-9" d="M362.31,343.27s-1,27.57.27,44.21c1.14,14.87-.48,57.92-.84,67.48a6.46,6.46,0,0,0,4.71,6.34,10.23,10.23,0,0,0,7.54-.72,6.58,6.58,0,0,0,3.61-4.32c2.28-8.92,9.87-39.44,10.95-54.87,1.27-18.2,2.4-41,3.67-48.24S362.31,343.27,362.31,343.27Z"/><path class="cls-10" d="M409.64,465.15c-3.41.66-6,3-6.38,5.84-.25,1.73-.39,3.37-.11,3.82.63,1,4.45,3.38,9.22,2.08s8-4.16,10.5-6.5,6.69-4.95,7.64-6.77-1.27-3.9-3.82-3.9c-2.18,0-12.32,3.83-15.16,4.92a9.62,9.62,0,0,1-1.59.45Z"/><path class="cls-11" d="M419.16,348.64s1.7,84.37-2.05,114.93a8.29,8.29,0,0,1-10,6.67c-.64-.15-4.86.85-5.57.61-3.39-1-7-82.68-9.94-92s-11.88-16.3-11-30.17S406.86,341.71,419.16,348.64Z"/><path class="cls-11" d="M421.19,355.35c-1.49,6.11-23.15,7.69-35.61,6.06s-27.15-4-26.7-15.76c0,0,1.15-52.89,1.15-62.17s7.14-16.15,7.14-16.15,7-6.52,28.91-2.85c0,0,17.87,3.18,26.09,14,0,0,6.89,10.19,5,34.94A299.94,299.94,0,0,1,421.19,355.35Z"/><path class="cls-12" d="M379,251.38s1.89,9,0,13.15c-.32,2.06,10.72,9,20.5,7.22,5.68-1,5.36-3.35,5.36-3.35s-4.73-6.45-4.1-12.64S385.58,250.09,379,251.38Z"/><path class="cls-13" d="M409.89,268.94l-6.78-3.11s-17.37-1.33-23.62-4.66L376.24,265s4.34,6.87,15.47,7.76S408,270.05,408,270.05Z"/><path class="cls-14" d="M410.81,236.16c0,9.61-9.54,17.4-21.29,17.4s-21.29-7.79-21.29-17.4,9.53-17.39,21.29-17.39S410.81,226.56,410.81,236.16Z"/><path class="cls-14" d="M410.81,237.32s.25,17.43-4.39,20.95-11.78-3.29-23.18-5.48c-11.4-2.39,9.25-20.51,9.25-20.51Z"/><path class="cls-15" d="M371.62,221.88s22.76-10.78,35.5-1.86-1.82,12.65-4.09,15.25,0,4.72-1.22,6.58-1.51,2.23-1.51,2.23l.76,2.23-1.37,1s-1.82-4.21-3.49-4.09-3,2.85-2.43,4.46,2.28,3.35,2,4.47-2.13,4.21-3.8,4.34a46.69,46.69,0,0,1-11.83-2.36c-2.58-1.11-10.47-6.2-13.5-12.4a10.82,10.82,0,0,1,1.21-11.28S365.71,225,371.62,221.88Z"/><polygon class="cls-16" points="448.52 367.33 427.47 377.65 430.28 408.05 476.24 384.82 474.48 355.86 448.52 367.33"/><path class="cls-8" d="M452.56,359s5,4.3,6.05,5.59,1.58,8,.26,8.82-7.63,3-9.74,2.58-3.42-1.29-3.42-1.94-.52-4.95-.52-4.95-3.69-2.15-3.95-3.44a8.84,8.84,0,0,1,.26-3.22Z"/><path class="cls-11" d="M414.84,271.56s12.63,5.17,15.44,16.06,8.42,39,8.42,39l15.43,31.75s-3.5,9.54-14.73,4.95c0,0-16.84-26.38-21-33.84s-8.42-41.86-9.12-48.74,5.61-9.18,5.61-9.18"/><rect class="cls-2" x="337.3" y="182.96" width="6.32" height="5.16"/><rect class="cls-2" x="347.83" y="191.57" width="14.74" height="12.04"/><rect class="cls-2" x="762.53" y="513.85" width="6.32" height="5.16"/><rect class="cls-2" x="773.05" y="522.45" width="14.74" height="12.04"/></svg>