<svg id="Layer_1" data-name="Layer 1" xmlns="http://www.w3.org/2000/svg" viewBox="0 0 800 800"><defs><style>.cls-1{fill:#002766;}.cls-2,.cls-27,.cls-28{fill:none;stroke:#002766;stroke-miterlimit:10;}.cls-2{stroke-width:0.75px;}.cls-3{fill:#1890ff;}.cls-4{fill:#69c0ff;}.cls-29,.cls-5{fill:#a6d0f4;}.cls-5{opacity:0.35;}.cls-6{isolation:isolate;}.cls-7{fill:#adcdfc;}.cls-8{fill:#fff;}.cls-9{fill:#c7d8f2;}.cls-10{fill:#7baeff;}.cls-11{fill:#4da5dc;}.cls-12{fill:#25437f;}.cls-13{fill:#254da1;}.cls-14{fill:#bb543e;}.cls-15{fill:#ff9554;}.cls-16{fill:#62759a;}.cls-17{fill:#a9c9e6;}.cls-18{fill:#ff8654;}.cls-19{fill:#113569;}.cls-20{fill:#232839;}.cls-21{fill:#113c7a;}.cls-22{fill:#112c5c;}.cls-23{fill:#e16b40;}.cls-24{fill:#96432a;}.cls-25{fill:#cbdceb;}.cls-26{opacity:0.53;}.cls-27{stroke-width:0.53px;}.cls-28{stroke-width:1.06px;}.cls-30{fill:#713336;}.cls-31{fill:#4ca15c;}.cls-32{fill:#4b5cc0;}.cls-33{fill:#58affb;}</style></defs><polygon class="cls-1" points="39.5 366.26 39.51 369.24 12.27 384.97 12.26 381.99 39.5 366.26"/><polygon class="cls-1" points="26.01 367.15 26.02 370.12 12.25 378.08 12.24 375.1 26.01 367.15"/><polygon class="cls-1" points="17.56 363.43 17.57 366.43 12.22 369.52 12.21 366.51 17.56 363.43"/><path class="cls-2" d="M14.09,401.5A9.14,9.14,0,0,0,13.3,405L13.41,444c0,3.07,2.18,4.31,4.85,2.76l58.08-33.52a10.65,10.65,0,0,0,4.82-8.36l-.11-38.92a4,4,0,0,0-.81-2.6l-33,41.62Z"/><path class="cls-2" d="M18.12,396.67a11.73,11.73,0,0,0-4,4.83l33.14,3.43,33-41.62a2.72,2.72,0,0,0-3.11-.61Z"/><polyline class="cls-2" points="92.13 389.02 204.26 324.42 204.26 382.93"/><path class="cls-3" d="M692.07,512.51c42.21,24.37,42.44,63.88.49,88.25L495.69,715.17c-41.94,24.38-110.15,24.38-152.36,0L145.17,600.77c-42.22-24.38-42.44-63.88-.5-88.26L341.54,398.1c41.94-24.37,110.15-24.37,152.37,0Z"/><path class="cls-1" d="M692.56,494.35,495.69,608.76c-41.94,24.38-110.15,24.38-152.36,0L145.17,494.36c-21.25-12.27-31.86-28.36-31.81-44.44l-.07,22.77c0,16.07,10.57,32.17,31.81,44.44L343.26,631.54c42.22,24.37,110.43,24.37,152.37,0L692.5,517.12c20.84-12.1,31.27-27.95,31.31-43.82l.06-22.76C723.83,466.4,713.4,482.25,692.56,494.35Z"/><path class="cls-4" d="M692.07,406.1c42.21,24.37,42.44,63.88.49,88.26L495.69,608.76c-41.94,24.38-110.15,24.38-152.36,0L145.17,494.36c-42.22-24.38-42.44-63.88-.5-88.26L341.54,291.69c41.94-24.37,110.15-24.37,152.37,0Z"/><path class="cls-1" d="M562.91,164.47l9,34.27-4.35-2.52-1.8-7-10.57-6.1L553.32,188,549,185.53l9.12-23.83Zm-6.59,15.46,8.24,4.76-4.06-15.84-4.18,11.08"/><path class="cls-1" d="M592.52,185.87a13.35,13.35,0,0,1,1,5,6.81,6.81,0,0,1-.91,3.65,3.4,3.4,0,0,1-2.92,1.51,10.19,10.19,0,0,1-5.12-1.72L580,191.63l0,11.76L575.8,201l.08-29,8.72,5a19,19,0,0,1,4.91,4A16.72,16.72,0,0,1,592.52,185.87Zm-4.44,5.32c.78-.38,1.17-1.31,1.17-2.82q0-4.77-4.67-7.46L580,178.26l0,9.48,4.58,2.65c1.57.9,2.74,1.17,3.52.8"/><path class="cls-1" d="M614.13,198.35a13.54,13.54,0,0,1,1,5,6.76,6.76,0,0,1-.92,3.65,3.38,3.38,0,0,1-2.91,1.52,10.25,10.25,0,0,1-5.13-1.73l-4.58-2.64,0,11.77-4.14-2.39.09-29,8.71,5a18.94,18.94,0,0,1,4.92,4A16.59,16.59,0,0,1,614.13,198.35Zm-4.44,5.31c.78-.37,1.17-1.31,1.17-2.81,0-3.18-1.55-5.66-4.67-7.47l-4.58-2.64,0,9.48,4.57,2.64c1.57.91,2.75,1.18,3.53.8"/><path class="cls-1" d="M630.85,220.75l6.21,15.63-4.94-2.86-5.78-15-3.15-1.82,0,11.61L619,226l.08-29,8.72,5a19.11,19.11,0,0,1,4.92,4,17,17,0,0,1,3,4.87,13.37,13.37,0,0,1,1,4.95,6,6,0,0,1-1.44,4.34C634.31,221.13,632.83,221.34,630.85,220.75ZM623.2,213l4.57,2.64c1.55.89,2.72,1.12,3.51.68s1.18-1.4,1.19-2.91a8.09,8.09,0,0,0-1.15-4.19,9.49,9.49,0,0,0-3.52-3.31l-4.58-2.64,0,9.73"/><path class="cls-1" d="M664.72,230.1a23.76,23.76,0,0,1,1.69,8.63,11.46,11.46,0,0,1-1.73,6.67A6,6,0,0,1,660,248a11.79,11.79,0,0,1-6.53-1.87A23.75,23.75,0,0,1,647,240.5a29.16,29.16,0,0,1-4.67-8,23.52,23.52,0,0,1-1.71-8.65,11.17,11.17,0,0,1,1.75-6.64,6,6,0,0,1,4.7-2.57,11.55,11.55,0,0,1,6.49,1.84,24,24,0,0,1,6.51,5.66A29.22,29.22,0,0,1,664.72,230.1ZM661,241.29a9.55,9.55,0,0,0,1.13-5,17.91,17.91,0,0,0-1.1-6.26,18.5,18.5,0,0,0-3-5.49,16.16,16.16,0,0,0-4.46-3.88,7.9,7.9,0,0,0-4.48-1.28,3.86,3.86,0,0,0-3.07,1.95,9.34,9.34,0,0,0-1.13,5,18.26,18.26,0,0,0,1.1,6.3,19.07,19.07,0,0,0,3,5.53,16,16,0,0,0,4.46,3.89,7.8,7.8,0,0,0,4.48,1.27,3.91,3.91,0,0,0,3.07-2"/><path class="cls-1" d="M682.86,233.73l9,34.26-4.35-2.51-1.81-7-10.56-6.1-1.83,4.88-4.33-2.49L678.07,231Zm-6.59,15.46,8.24,4.76-4.06-15.85-4.18,11.09"/><path class="cls-1" d="M707.34,247.52a24.61,24.61,0,0,1,7.16,6.42A26.55,26.55,0,0,1,719,263l-5-2.87a15.84,15.84,0,0,0-2.72-5,14.64,14.64,0,0,0-4-3.45,7.87,7.87,0,0,0-4.47-1.29,3.85,3.85,0,0,0-3.08,2,9.47,9.47,0,0,0-1.13,5,18.24,18.24,0,0,0,1.1,6.27,19.09,19.09,0,0,0,3,5.51,16.11,16.11,0,0,0,4.47,3.9,7.26,7.26,0,0,0,4,1.19,3.34,3.34,0,0,0,2.74-1.84l5,2.87a5.7,5.7,0,0,1-4.58,3.79c-2.09.29-4.48-.33-7.17-1.88a23.7,23.7,0,0,1-6.5-5.66,29.85,29.85,0,0,1-4.65-8,23.42,23.42,0,0,1-1.7-8.64,11.27,11.27,0,0,1,1.74-6.64,6,6,0,0,1,4.71-2.57A11.63,11.63,0,0,1,707.34,247.52Z"/><polygon class="cls-1" points="744.05 269.1 743.97 298.1 739.83 295.72 739.87 283.02 727.99 276.17 727.96 288.86 723.82 286.47 723.9 257.46 728.04 259.85 728 272.29 739.88 279.14 739.91 266.71 744.05 269.1"/><ellipse class="cls-5" cx="306.07" cy="468.76" rx="62.71" ry="39.84"/><path class="cls-5" d="M336.25,510.4c0,12.28,15.67,22.24,35,22.24s35-10,35-22.24-15.67-22.24-35-22.24S336.25,498.12,336.25,510.4Z"/><path class="cls-5" d="M478.38,433.45c0,12.28,15.67,22.24,35,22.24s35-10,35-22.24-15.67-22.24-35-22.24S478.38,421.17,478.38,433.45Z"/><g class="cls-6"><path class="cls-7" d="M343.46,463.79c-.74,8.2-8.45,13.77-15.42,16.77A59.06,59.06,0,0,1,303.9,485a57.4,57.4,0,0,1-24.54-5.44c-6.61-3.25-13.62-9.15-13.6-17.17,0,5.84.39,10.67,4.6,15.23,5.42,5.87,13.58,9,21.25,10.61,15,3.1,35.36,1.6,46.73-9.92,4.57-4.64,5.2-9.53,5.22-15.69C343.54,463,343.51,463.41,343.46,463.79Z"/><path class="cls-8" d="M332.07,448.87c15.23,8.79,15.33,23.06.19,31.86s-39.79,8.8-55,0-15.3-23.07-.16-31.86S316.83,440.07,332.07,448.87Z"/></g><g class="cls-6"><polygon class="cls-9" points="308.79 436.99 308.72 469.38 304.65 471.74 304.71 439.35 308.79 436.99"/><polygon class="cls-10" points="304.71 439.35 304.65 471.74 300.55 469.38 300.62 436.99 304.71 439.35"/><polygon class="cls-11" points="310.68 431.08 304.74 434.54 298.75 431.08 304.7 427.62 310.68 431.08"/></g><path class="cls-12" d="M266.05,320.84s-12.25,7.19-15.5,14.51-2.38,58.64,14.68,81.39,48.77,26,56.09,22.76,49.58-24.38,52.83-34.95-13-18.69-21.95-22.76-14.63-9.75-19.5-24.38-7.32-39.83-13-43.89S300.18,303,266.05,320.84Z"/><path class="cls-13" d="M326.75,432.26c6-2.65,35.15-17.18,47.49-28.19,2.62-10.33-13.23-18.27-22-22.28s-14.63-9.75-19.5-24.38-7.32-39.83-13-43.89-19.51-10.57-53.64,7.32a64.24,64.24,0,0,0-10.22,7.67c-3.07,8.53-2,58.59,14.84,81C287.73,432.26,319.43,435.51,326.75,432.26Z"/><path class="cls-14" d="M295.13,282.39s-2.49,8.37,2.72,14.26c4.75,5.65,3.85,7.24,2.94,9.27s-6.56,8.38-5.88,17.21,25.34,4.75,27.61-1.36-6.79-16.3-7.47-24,4.75-17.66-1.81-20.15S298.3,273.33,295.13,282.39Z"/><path class="cls-13" d="M364.31,492.26s-2.26,6.19-.9,8,1.81,8.15,1.81,8.15l2.26,1.36.91-4.53s.9,3.62,2.71,5.43,9,5,14.94,6.34,7.69.9,8.15-1.36-6.34-10.41-10.41-13.13S364.31,492.26,364.31,492.26Z"/><path class="cls-15" d="M377.59,491.66a54.29,54.29,0,0,0,4.37,7.7c1.82,2.26,6.79,6.33,6.34,8.6s-5,1.81-10.41,0-6.79-6.79-9.5-8.15-4.53-2.87-4.08-7.55S377.59,491.66,377.59,491.66Z"/><path class="cls-15" d="M353.11,417.51s-4.36-8.49,3.54-12.92,13.68,2.43,15.08,5.65,5.67,12.32,5.75,20.86.71,61.77.71,61.77-6.26,5.86-13.24-1.15c0,0-7.73-63.92-7.93-67S353.11,417.51,353.11,417.51Z"/><path class="cls-13" d="M351,498.9s-2.26,6.19-.9,8,1.81,8.15,1.81,8.15l2.26,1.36.91-4.53s.9,3.62,2.71,5.43,9.06,5,14.94,6.34,7.7.9,8.15-1.36-6.34-10.41-10.41-13.13S351,498.9,351,498.9Z"/><path class="cls-15" d="M331.12,433.12s-5.43-7.85,1.81-13.28,13.88.6,15.69,3.62,7.24,11.47,8.45,19.92,7.24,54.92,7.24,54.92-5.43,6.64-13.28.6c0,0-14.48-56.12-15.08-59.14S331.12,433.12,331.12,433.12Z"/><path class="cls-15" d="M364.31,498.3a54.19,54.19,0,0,0,4.38,7.69c1.81,2.27,6.79,6.34,6.33,8.6s-5,1.82-10.41,0-6.79-6.78-9.5-8.14-4.53-2.87-4.08-7.55S364.31,498.3,364.31,498.3Z"/><path class="cls-16" d="M363.71,398.72c-2.2-2.07-27.76-23.84-27.76-23.84l-42.25,6.64s.6,19.31,10.86,32,19.92,19,19.92,19a18.17,18.17,0,0,0,7.84,3.62s1.06-3.93,7.4-7.55,27.61-18.1,30.33-17.65,3.16,1.81,3.16,1.81A36.3,36.3,0,0,0,363.71,398.72Z"/><path class="cls-9" d="M331.33,308.77s6.18.33,9.76,8.79,8.14,29.95,9.44,31.9-.32,7.81-8.14,9.44A104.89,104.89,0,0,1,330.68,340C325.79,329.6,323.84,313.33,331.33,308.77Z"/><path class="cls-9" d="M306.18,304.4s-16.95,12.11-18.63,16.14-2,15.24,1.46,22.71,2.22,35,3.48,40.36,15.76,7.07,24.74,5.34,19.83-8.23,19.49-18.7-1.81-16.24,3.72-41c1-4.64-3.31-10.28-5.5-18.22-.46-1.68-6.1-3.44-6.1-3.44S322.89,303.69,306.18,304.4Z"/><path class="cls-9" d="M300.09,314.48s-14.62-2.93-20.88,19.61c-3.88,15.5-7.58,28.69-5.4,31.54s8.52,5.44,12.58,2.15,16.15-40.52,15.85-44.22S303.21,316.92,300.09,314.48Z"/><path class="cls-17" d="M339.14,333.18s-6.19,15-35.8,9.12c-5.86-.33-11.4,13-7.82,20.18a82.66,82.66,0,0,1,7.12,26.57,45.09,45.09,0,0,0,14.59-.1c9-1.74,19.83-8.23,19.49-18.7-.32-9.81-1.63-15.49,2.76-36.51C339.26,333.39,339.14,333.18,339.14,333.18Z"/><path class="cls-8" d="M305.78,303.73a3.57,3.57,0,0,0-1.31,3.25c.17,2.28,6.68,10.91,9.28,12.21s5.37-6.35,5.37-6.35,5.54,2.28,7.49.65-3.42-7.81-4.88-8.95S308.87,302.59,305.78,303.73Z"/><path class="cls-18" d="M320.92,302.12a1.44,1.44,0,0,0,0,.54c.18,1.25.8,4.42.92,5.75s-1.34,3.48-4.77,3.41-9.26-1.51-11.2-5.6a97,97,0,0,0-.57-12.09Z"/><path class="cls-15" d="M325.84,281.4c-1.61-8.56-8.39-13.43-16.07-11.63,0,0-8.32.83-12,8.14s1.73,13.45,5.21,17.33c1.46,1.59,2.57,2.82,3.27,3.6.25.29.5.59.76.86l.08.09h0a17.44,17.44,0,0,0,7.11,4.32c3.35,1,7.3.42,9.44-1.86S327.44,290,325.84,281.4Z"/><path class="cls-15" d="M302.8,291.12s-2.52-3.45-4.38-2.52,2.53,8.49,5.31,8.36C306.25,296.56,302.8,291.12,302.8,291.12Z"/><polygon class="cls-8" points="332.02 380.16 362.35 409.13 338.81 422.25 308.49 393.29 332.02 380.16"/><path class="cls-15" d="M337.44,386.85a40.07,40.07,0,0,0-2.77,5.49c-.5,1.66-2.08,4.85-1.42,5.73s2.88-.57,3.35-1.56a3.39,3.39,0,0,1,1.37-1.46s.11,1.12.3,3,.86,5.88,2.35,6.59,3.68-2.16,4.74-3.88,1-6.74.45-7.91-2.18-3.86-2.18-3.86Z"/><path class="cls-9" d="M338.49,350.76a5.89,5.89,0,0,1,10.7-2.57,19.58,19.58,0,0,1,3,6.77c1.61,7.25-5.8,32.84-6.56,35.16s-5.16,3.35-8.63.44,1.39-31.8,1.4-35.33A37.2,37.2,0,0,1,338.49,350.76Z"/><path class="cls-15" d="M317,388.22a40.52,40.52,0,0,1,6,1.33c1.6.67,5.06,1.47,5.33,2.54S326,394,325,393.69a3.43,3.43,0,0,0-2,.13l2.13,2.14c1.33,1.33,4,4.4,3.6,6s-4,1.46-6,1.2-5.87-3.47-6.4-4.67-1.6-4.13-1.6-4.13Z"/><path class="cls-9" d="M282.34,359.28a5.89,5.89,0,0,0-8.83,6.56,19.55,19.55,0,0,0,3.29,6.62c4.53,5.89,34.85,22.64,37.12,23.54s5.88-1.81,5.88-6.34-31.23-25.34-33.95-27.61A37.89,37.89,0,0,0,282.34,359.28Z"/><path class="cls-14" d="M317.54,276.73s-2.27-.91-3.4,2.26-1.81,7.47-5.88,9.06-5.21,2.48-8.15,2.26-5.88-2.94-5.66-6.11S296,272,307.13,268.13s18.78,5.2,20.14,10.86-.91,6.11-.91,6.11S326.14,275.82,317.54,276.73Z"/><ellipse class="cls-5" cx="446.09" cy="386.68" rx="62.71" ry="39.84"/><g class="cls-6"><path class="cls-7" d="M483.48,381.71c-.74,8.2-8.46,13.77-15.42,16.77A59.06,59.06,0,0,1,443.92,403a57.4,57.4,0,0,1-24.54-5.44c-6.61-3.25-13.62-9.15-13.6-17.17,0,5.84.39,10.67,4.6,15.23,5.42,5.87,13.58,9,21.25,10.61,15,3.1,35.36,1.6,46.73-9.92,4.57-4.64,5.2-9.53,5.21-15.69A10.75,10.75,0,0,1,483.48,381.71Z"/><path class="cls-8" d="M472.08,366.79c15.24,8.79,15.34,23.06.2,31.86s-39.79,8.8-55,0-15.3-23.07-.16-31.86S456.85,358,472.08,366.79Z"/></g><g class="cls-6"><polygon class="cls-9" points="448.81 354.91 448.74 387.3 444.67 389.67 444.73 357.27 448.81 354.91"/><polygon class="cls-10" points="444.73 357.27 444.67 389.67 440.57 387.3 440.63 354.91 444.73 357.27"/><polygon class="cls-11" points="450.7 349 444.75 352.46 438.77 349 444.71 345.54 450.7 349"/></g><path class="cls-12" d="M406.07,238.76s-12.25,7.19-15.5,14.51-2.39,58.64,14.68,81.39,48.77,26,56.09,22.76,49.58-24.38,52.83-34.95-13-18.69-21.95-22.76-14.63-9.75-19.51-24.38-7.31-39.83-13-43.89S440.2,220.87,406.07,238.76Z"/><path class="cls-13" d="M466.77,350.18c6-2.65,35.15-17.18,47.49-28.19,2.62-10.33-13.24-18.27-22-22.28s-14.63-9.75-19.51-24.38-7.31-39.83-13-43.89-19.51-10.57-53.64,7.32a64.24,64.24,0,0,0-10.22,7.67c-3.07,8.53-2,58.59,14.84,81C427.75,350.18,459.45,353.43,466.77,350.18Z"/><path class="cls-19" d="M480,240s3.62,1.25,6.34,10.3,10.41,25.35,7.69,32.59-10.86,3.17-13.13-2.26-11.3-30.6-9.49-34.31S476.43,238.7,480,240Z"/><path class="cls-20" d="M502.15,425.12a28.39,28.39,0,0,0,2.26,5.73c1.6,3.06,7.36,7.15,9.79,9.24s5.45,5.93,5.14,7.77-6.18,2.29-10.8,1.29-8.64-6.15-10-6-6.42-.87-7.46-2.61.69-8.68.69-8.68l.07-5Z"/><path class="cls-20" d="M524.79,410.64a28.93,28.93,0,0,0,2.25,5.73c1.6,3.05,7.36,7.15,9.79,9.23s5.45,5.94,5.14,7.78-6.18,2.29-10.8,1.28-8.64-6.14-10-6-6.42-.87-7.46-2.6.7-8.68.7-8.68l.07-5Z"/><path class="cls-21" d="M439,311.05s-.61,9.66,4.83,17.51,27.76,27.76,30.17,29.57,3,15.09,5.43,21.12,9.66,45.27,10.87,48.29c0,0,1.21,3,9.65,1.2,4.83-.6,5.44-2.41,5.44-2.41s-3-44.06-5.44-54.32-3-21.73-7.24-25.95S468,315.28,468,315.28l-4.83-7.85Z"/><path class="cls-21" d="M476.42,301.4s32.59,18.1,37.11,22.18,7.7,9.5,8.6,14.48c.37,2,3.63,72,5,75.14.46,2.72-8.14,4.53-12.22,3.17a15.57,15.57,0,0,1-4.07-4.07s-8.15-42.1-8.15-48-3.62-23.54-3.62-23.54L461.48,319.5l-2.72-9.5Z"/><path class="cls-22" d="M440.21,317.24s3.16,9.05,16.29,7.7L461,324l.9-7.24s7.7-.91,12.68-5c1.81.9,2.26,5.43,4.07,5.88s5-5.88,4.07-10.41-3.16-2.71-3.16-2.71S442.47,313.62,440.21,317.24Z"/><path class="cls-8" d="M454.07,235.27S438.58,246.33,437,250s-1.86,13.93,1.34,20.76,2,32,3.17,36.88,14.41,6.46,22.61,4.88S482.29,305,482,295.44s-.11-27.4.41-31.71,0-15.13-2-22.38c-.43-1.53-5.58-3.14-5.58-3.14S469.34,234.62,454.07,235.27Z"/><path class="cls-23" d="M467.53,233.18a1.5,1.5,0,0,0,0,.5c.17,1.13.74,4,.84,5.25S467.16,242.1,464,242s-8.47-1.38-10.24-5.12a87.65,87.65,0,0,0-.52-11Z"/><path class="cls-8" d="M453.65,234.56a11.31,11.31,0,0,0,11,7.46l.56,0-4.27,6.88s-6.51-3.9-8.55-6.13a8.09,8.09,0,0,1-1.86-5.4Z"/><path class="cls-8" d="M465.17,242l4.46,4.28s3.35-2.79,1.31-9.3l-2.79-1.11A7.14,7.14,0,0,1,465.17,242Z"/><path class="cls-18" d="M474.13,211.74c-1.65-8.83-8.65-13.84-16.56-12,0,0-8.58.86-12.39,8.39S447,222,450.55,226c1.51,1.64,2.66,2.9,3.38,3.71.26.3.51.61.79.89l.07.09h0a18,18,0,0,0,7.33,4.45c3.45,1,7.53.44,9.74-1.91S475.78,220.57,474.13,211.74Z"/><path class="cls-21" d="M450.49,237.34s-2.32,2.24.74,7.81a59,59,0,0,1,6.7,25.65c.27,10.6,1.67,43.77.27,51-2.78,2.51-16.17.28-20.07-6.41-1.67-9.76-.84-39.31-2.79-45.45s-1.39-17.28-.28-20.35C436.46,246.55,447.24,238.18,450.49,237.34Z"/><path class="cls-21" d="M472.05,237.16a76.74,76.74,0,0,1,2.23,20.44c0,11,3.16,56.51,3.72,57.44s7.06-4.83,7.25-11.53-2.23-47.76-2.6-51.85S481,240.69,480,240,473.17,237.34,472.05,237.16Z"/><polygon class="cls-21" points="468.82 244.24 466.81 248.48 462.57 245.13 465.17 241.99 468.82 244.24"/><path class="cls-21" d="M467.7,245.8s4,50.95,4,53.18L469,303.66l-3.57-3.79-1.31-54.51Z"/><path class="cls-21" d="M435.83,247.84s-3,2.41-5.43,10-3.92,33.8-3.92,37.72,0,8.45,3.31,10.57,7.25,1.81,9.36-2.12,3.62-26.25,5.13-33.19,3.92-13.88.9-18.41S438.24,247.23,435.83,247.84Z"/><path class="cls-24" d="M446.69,201.06a12.26,12.26,0,0,1,9.66-5.73c6.94-.61,8.75,1.81,11.77,2.11s5.73-1.21,7.84,2.11-2.41,9.66-2.41,9.66-2.41-.6-4.83,5.43-11.16,4.53-13,3.92l-1.51,3v2.72l-2.11-.3s.9-3.32-1.21-4.53-2.72,1.21-2.42,3,3.3,6,6,7.23l-.9,1.82-.6,1.21a47.38,47.38,0,0,1-4.83-4.53c-1.51-1.81-3.62-.3-6.64-6.94s-2.11-11.77.61-14.79l2.71-3Z"/><polygon class="cls-25" points="476.87 302.3 507.2 331.27 483.66 344.4 453.33 315.43 476.87 302.3"/><path class="cls-18" d="M470.08,324.18s1.51,1.06,2.26,1.51,3.62,2.26,5,3.17,2.87,4.07,3.32,4.68,1.81,3.77,1.51,4.52-1.21.3-1.21.3-1.66,1.82-3.47,1.66-3.32-2.41-3.32-2.41l-2.56-2.26a12.59,12.59,0,0,1-2.42-3.93l-1.81-1.2S466,328.86,470.08,324.18Z"/><path class="cls-8" d="M464.42,329.24s1.89-5.36,4.15-6.72l2.57,1.81s-2.87,3.32-3.32,6.49Z"/><path class="cls-21" d="M464.42,329.24a10.33,10.33,0,0,1-4.52-1.51c-2.72-1.51-8.68-6.57-12.6-8.07s-11.77-6.34-16.3-10.26-4.52-10.26-4.52-10.26c1.5-2.42,5.73-4.53,10.56-2.72s10.86,6.34,16.29,10.86S468,320.79,468,320.79l1.59,1.88S466.31,323.88,464.42,329.24Z"/><path class="cls-19" d="M485.47,284.65a26.37,26.37,0,0,0,.91,9.05c1.35,4.53-1.82,19.92-.46,21.28a8.51,8.51,0,0,0,8.15,2.26l2.72-1.81s1.35-15.39,1.35-19.92-1.35-17.2-4.52-19.91S482.75,275.14,485.47,284.65Z"/><path class="cls-8" d="M487.05,314.52s3.63-3.62,8.38.23l.22,3.17s-.9,2.94-8.37.23Z"/><path class="cls-18" d="M487.73,317.32s3.85-2.19,7.25.3l.3,1.21s1,2.71,1.36,3.92a6.51,6.51,0,0,1-.23,3.09,18.13,18.13,0,0,1-.53,3.4c-.3.52-.9.37-1.43.3a47.68,47.68,0,0,1-4.76-1.81c-1.2-.53-1.58-3.17-1.81-4.08a19.72,19.72,0,0,1,.15-4.15A7.79,7.79,0,0,0,487.73,317.32Z"/><path class="cls-1" d="M566.38,216.65v5.08a3.9,3.9,0,0,1-5.84,3.38l-24-13.85a3.88,3.88,0,0,1-2-3.37v-5.08a3.89,3.89,0,0,1,5.84-3.38l24,13.84A3.91,3.91,0,0,1,566.38,216.65Z"/><path class="cls-1" d="M642.46,285.49v5.1a3.9,3.9,0,0,1-5.84,3.38L536.52,236.58a3.88,3.88,0,0,1-1.95-3.38v-5.09a3.9,3.9,0,0,1,5.84-3.38l100.11,57.39A3.88,3.88,0,0,1,642.46,285.49Z"/><g class="cls-26"><path class="cls-1" d="M601.2,312.47v5.09a3.89,3.89,0,0,1-5.83,3.38l-58.83-33.72a3.91,3.91,0,0,1-2-3.38v-5.1a3.89,3.89,0,0,1,5.83-3.38l58.83,33.73A3.89,3.89,0,0,1,601.2,312.47Z"/></g><path class="cls-1" d="M627,301.91V307a3.9,3.9,0,0,1-5.83,3.38L536.53,261.9a3.9,3.9,0,0,1-2-3.38v-5.1A3.9,3.9,0,0,1,540.4,250L625,298.53A3.91,3.91,0,0,1,627,301.91Z"/><polyline class="cls-27" points="682.09 304.42 682.09 372.72 633.44 401.39"/><path class="cls-28" d="M687.88,299.59a6.12,6.12,0,1,1-6.12-6.12A6.12,6.12,0,0,1,687.88,299.59Z"/><path class="cls-29" d="M677.38,445.35c8.69,5,8.74,13.14.12,18.15s-22.65,5-31.34,0-8.72-13.14-.1-18.14S668.7,440.34,677.38,445.35Z"/><g class="cls-6"><path class="cls-25" d="M680,400.61l-.14,49.22c0,3-2,6.07-6,8.39-8,4.66-21.09,4.66-29.18,0-4.07-2.35-6.1-5.43-6.09-8.51l.14-49.22c0,3.07,2,6.16,6.09,8.5,8.09,4.68,21.16,4.68,29.18,0C678,406.68,680,403.65,680,400.61Z"/><path class="cls-8" d="M673.87,392.09c8.1,4.67,8.14,12.24.11,16.9s-21.09,4.67-29.18,0-8.12-12.23-.1-16.89S665.79,387.42,673.87,392.09Z"/><path class="cls-30" d="M670.65,394c6.31,3.64,6.34,9.53.09,13.16s-16.42,3.63-22.72,0-6.33-9.52-.08-13.15S664.36,390.33,670.65,394Z"/></g><path class="cls-31" d="M643.44,402s-10.35-34.4-14-39.58c0-4.56,9.43.92,13.09,9.44s7,27.7,7,27.7-.61-44.14,7-53.88c4.87,1.22,1.83,49.62,1.22,53.27,0,0,15.22-32.26,25.27-39,4.56.61-14.62,40.49-14.62,40.49s7.92-14.92,22.23-17.66c0,0-11.27,16.13-15.83,20.4,0,0-5.18,7.91-18.88,6.39C655.92,409.62,646.48,409,643.44,402Z"/><polygon class="cls-1" points="247.58 159.79 247.6 166.98 230.84 176.66 230.88 192.14 223.97 196.13 223.91 173.46 247.58 159.79"/><path class="cls-1" d="M247.6,167,315,128.1l.12,42.65.05,19.26L303,197l-72,41.54-.14-46.44,0-15.48Zm65.54,21.92L313,131.5l-80.17,46.28.16,57.41,80.17-46.29"/><polygon class="cls-1" points="322.64 166.38 322.72 193.59 302.99 204.98 302.97 197.03 315.13 190.01 315.08 170.75 322.64 166.38"/><polyline class="cls-2" points="315.18 158.66 385.87 118.44 385.87 187.91 441.94 225.7"/><path class="cls-32" d="M287.11,193.4l.08,0,.21-.12.22-.13.07,0,.15-.09.08,0,.13-.08.09,0,.13-.09.08-.05.14-.09.08,0,.13-.09.08-.05.16-.11.27-.19.2-.15.07-.05.14-.1.08-.06.13-.1.08-.06.13-.1.08-.06.13-.1.08-.06.14-.12.06-.05.18-.15.24-.19.2-.17.2-.18.07-.06.13-.12.07-.06.14-.12.06-.06.14-.13a2.39,2.39,0,0,0,.22-.21c.17-.15.3-.28.44-.42l.19-.19.19-.19.2-.2.2-.21.2-.22.6-.66.19-.21.18-.22.19-.22.18-.22.2-.25.73-.93.17-.23.18-.23c.07-.1.12-.18.18-.25q.44-.61.84-1.23l.16-.24.16-.25c.33-.52.64-1,.93-1.54.06-.1.1-.18.15-.25s.1-.19.15-.27l.7-1.32a68.49,68.49,0,0,0-8.1-.61l-.25.39a13.34,13.34,0,0,1-4,4,5.37,5.37,0,0,1-4.15.67l-.23-.07c-.25.29-5,5.86-7.66,9.4l.27.22.14.11.13.1.15.11.15.1.46.28.15.08.15.08.17.08.49.22.16.06.17,0,.18.06.53.15.17,0,.18,0,.18,0,.2,0,.37.05.18,0h1.56l.2,0,.23,0,.41-.06.2,0h.06l.14,0h.06l.15,0,0,0,.16,0,.46-.11.2-.06.07,0,.14,0,.07,0,.14-.05.07,0,.14-.05.07,0,.18-.06.24-.09.21-.08.07,0,.14-.05.08,0,.13-.06.09,0,.13-.07.08,0,.16-.07L286,194l.21-.1.08,0,.14-.07.08,0,.14-.07.09-.05.13-.07.09,0Z"/><path class="cls-25" d="M283.61,183a8,8,0,0,1-.65,1.1,5.37,5.37,0,0,0,4.15-.67,13.34,13.34,0,0,0,4-4,1.71,1.71,0,0,1-.71-.36,10.47,10.47,0,0,1-.58-2.7l-1.7,2.43a3.36,3.36,0,0,1-1.06,1A1.46,1.46,0,0,1,286,180l-1.74-.47-.1,0A20.25,20.25,0,0,1,283.61,183Z"/><path class="cls-25" d="M283.12,172c-.63.36-.76.34-.76.34l-.41,3,.1,1a5.58,5.58,0,0,0,.09.59,3.12,3.12,0,0,0,2.05,2.57l.1,0L286,180a1.46,1.46,0,0,0,1.06-.21,3.36,3.36,0,0,0,1.06-1l1.7-2.43,0-.06a12.65,12.65,0,0,0,2.12-5c0-.26.07-.52.1-.77l.16-2-1.42-4.47s-.22-.31-.75,0a4,4,0,0,0-1.15,1.19c-1.36,1.93-1.51,3.67-3.86,5.38C284.15,171.32,283.53,171.72,283.12,172Z"/><path class="cls-24" d="M285.22,161.65A13.06,13.06,0,0,0,281,169.6a11.63,11.63,0,0,0,.36,4.19,16.56,16.56,0,0,0,.57,1.83l0-.27.41-3s.13,0,.76-.34c.41-.24,1-.64,2-1.32,2.35-1.71,2.5-3.45,3.86-5.38a4,4,0,0,1,1.15-1.19c.53-.3.74,0,.75,0l1.42,4.47,0,.1s.14-.59.31-1.35.4-1.83.51-2.53c.23-1.35-.38-4.06-1.38-5-.77-.72-2.81-.55-4.86.64A9.65,9.65,0,0,0,285.22,161.65Z"/><path class="cls-33" d="M291.14,179.45l.25-.39a70.11,70.11,0,0,1,8.1.6,30.52,30.52,0,0,0,3.5-13.41c0-9.93-7.05-13.93-15.69-8.95s-15.61,17.07-15.58,27c0,4.35,1.37,7.57,3.62,9.38l-.27-.22c2.69-3.54,7.41-9.11,7.66-9.4l.23.07a8,8,0,0,0,.65-1.1,20.25,20.25,0,0,0,.58-3.49,3.12,3.12,0,0,1-2.05-2.57.88.88,0,0,1-.26.25c-1.3.48-2-2-1.16-3a1.33,1.33,0,0,1,.37-.33.69.69,0,0,1,.25-.09,11.63,11.63,0,0,1-.36-4.19,13.06,13.06,0,0,1,4.24-7.95,9.65,9.65,0,0,1,1.67-1.21c2.05-1.19,4.09-1.36,4.86-.64,1,.91,1.61,3.62,1.38,5-.11.7-.33,1.72-.51,2.53a1.18,1.18,0,0,1,.3-.25.63.63,0,0,1,.37-.1c.84,0,.17,3.32-1.05,4.28-.14.09-.19.11-.23.11a12.65,12.65,0,0,1-2.12,5,9,9,0,0,0,.54,2.76A1.71,1.71,0,0,0,291.14,179.45Z"/><polygon class="cls-1" points="269.26 193.79 269.27 196.77 242.02 212.5 242.01 209.52 269.26 193.79"/><polygon class="cls-1" points="255.77 194.68 255.78 197.66 242 205.61 241.99 202.63 255.77 194.68"/><polygon class="cls-1" points="247.31 190.96 247.32 193.96 241.98 197.05 241.97 194.04 247.31 190.96"/><polygon class="cls-1" points="269.26 241.33 269.27 244.31 242.02 260.04 242.01 257.06 269.26 241.33"/><polygon class="cls-1" points="255.77 242.21 255.78 245.19 242 253.14 241.99 250.17 255.77 242.21"/><polygon class="cls-1" points="247.31 238.5 247.32 241.5 241.98 244.59 241.97 241.58 247.31 238.5"/><polygon class="cls-1" points="269.26 270.58 269.27 273.56 242.02 289.29 242.01 286.31 269.26 270.58"/><polygon class="cls-1" points="255.77 271.47 255.78 274.44 242 282.4 241.99 279.42 255.77 271.47"/><polygon class="cls-1" points="247.31 267.75 247.32 270.75 241.98 273.84 241.97 270.83 247.31 267.75"/><polygon class="cls-2" points="502.88 95.34 502.64 182.88 452.76 154.08 453.01 66.55 502.88 95.34"/><polygon class="cls-3" points="496.36 99.01 498.09 98.01 497.84 185.55 496.12 186.55 496.36 99.01"/><polygon class="cls-4" points="446.49 70.21 448.21 69.21 498.09 98.01 496.36 99.01 446.49 70.21"/><polygon class="cls-1" points="496.36 99.01 496.12 186.55 446.24 157.75 446.49 70.21 496.36 99.01"/><path class="cls-8" d="M460.33,102.72v.77a.59.59,0,0,1-.88.51l-3.63-2.09a.58.58,0,0,1-.3-.51v-.77a.58.58,0,0,1,.88-.51l3.64,2.09A.58.58,0,0,1,460.33,102.72Z"/><path class="cls-8" d="M471.83,113.12v.77a.59.59,0,0,1-.88.51l-15.13-8.67a.59.59,0,0,1-.3-.51v-.77a.59.59,0,0,1,.88-.51l15.13,8.67A.61.61,0,0,1,471.83,113.12Z"/><g class="cls-26"><path class="cls-8" d="M465.59,117.2V118a.59.59,0,0,1-.88.51l-8.89-5.1a.58.58,0,0,1-.29-.51v-.77a.59.59,0,0,1,.88-.51l8.89,5.1A.58.58,0,0,1,465.59,117.2Z"/></g><path class="cls-8" d="M469.48,115.6v.77a.59.59,0,0,1-.88.51l-12.78-7.32a.61.61,0,0,1-.3-.51v-.77a.6.6,0,0,1,.89-.52l12.78,7.33A.6.6,0,0,1,469.48,115.6Z"/><path class="cls-8" d="M460.33,121.92v.76a.58.58,0,0,1-.88.51l-3.63-2.09a.57.57,0,0,1-.3-.51v-.76a.59.59,0,0,1,.88-.52l3.64,2.1A.58.58,0,0,1,460.33,121.92Z"/><path class="cls-8" d="M471.83,132.32v.77a.59.59,0,0,1-.88.51l-15.13-8.67a.61.61,0,0,1-.3-.51v-.77a.59.59,0,0,1,.88-.51l15.13,8.67A.59.59,0,0,1,471.83,132.32Z"/><g class="cls-26"><path class="cls-8" d="M465.59,136.39v.77a.58.58,0,0,1-.88.51l-8.89-5.09a.6.6,0,0,1-.29-.51v-.77a.58.58,0,0,1,.88-.51l8.89,5.09A.6.6,0,0,1,465.59,136.39Z"/></g><path class="cls-8" d="M469.48,134.8v.77a.59.59,0,0,1-.88.51l-12.78-7.33a.59.59,0,0,1-.3-.51v-.77a.6.6,0,0,1,.89-.51l12.78,7.33A.58.58,0,0,1,469.48,134.8Z"/><rect class="cls-1" x="516.6" y="97.72" width="5.48" height="5.48"/><rect class="cls-1" x="525.74" y="106.86" width="12.8" height="12.8"/><path class="cls-2" d="M421.28,109.47c8.56,4.94,15.47,16.91,15.44,26.74s-7,13.8-15.54,8.86-15.47-16.92-15.44-26.75S412.73,104.53,421.28,109.47Z"/><polygon class="cls-1" points="426.85 122.39 430.16 128.15 417.46 135.39 411.28 124.71 414.63 122.8 417.48 127.73 426.85 122.39"/></svg>