<svg id="Layer_1" data-name="Layer 1" xmlns="http://www.w3.org/2000/svg" viewBox="0 0 776.07 666.91"><defs><style>.cls-1{fill:#1890ff;}.cls-2{fill:#69c0ff;}.cls-3{fill:#002766;}.cls-4{fill:none;stroke:#002766;stroke-linecap:round;stroke-linejoin:round;}</style></defs><path class="cls-1" d="M464.8,492.17c14.44,9.92,14.52,25.88.17,35.8l-92.3,63.79c-14.29,9.88-37.53,9.92-52,0L227.78,528c-14.38-9.87-14.45-25.92-.16-35.8l92.3-63.79c14.35-9.91,37.59-9.87,52,0Z" transform="translate(-11.92 -66.11)"/><path class="cls-2" d="M265.34,355.22c14.38,9.88,14.52,25.89.17,35.81L173.2,454.81c-14.28,9.88-37.59,9.88-52,0L28.32,391c-14.44-9.92-14.46-25.93-.17-35.8l92.31-63.79c14.35-9.92,37.53-9.92,52,0Z" transform="translate(-11.92 -66.11)"/><path class="cls-3" d="M259.79,137.3c14.45,9.92,14.46,25.93.17,35.81l-92.3,63.78c-14.35,9.92-37.53,9.92-52,0l-92.9-63.78c-14.38-9.88-14.52-25.89-.17-35.8l92.3-63.79c14.29-9.88,37.59-9.88,52,0Z" transform="translate(-11.92 -66.11)"/><path class="cls-4" d="M776.65,492.17c14.39,9.87,14.46,25.93.17,35.8l-92.3,63.79c-14.35,9.92-37.59,9.87-52,0l-93-63.83c-14.39-9.88-14.52-25.89-.17-35.8l92.3-63.79c14.29-9.88,37.59-9.88,52,0Z" transform="translate(-11.92 -66.11)"/><path class="cls-3" d="M266.62,626c14.44,9.91,14.46,25.92.17,35.8l-92.3,63.79c-14.29,9.87-37.53,9.92-52,0l-92.9-63.79c-14.39-9.87-14.46-25.93-.17-35.8l92.3-63.79c14.29-9.87,37.59-9.88,52,0Z" transform="translate(-11.92 -66.11)"/></svg>