<svg id="Layer_1" data-name="Layer 1" xmlns="http://www.w3.org/2000/svg" viewBox="0 0 800 800"><defs><style>.cls-1{fill:#1890ff;}.cls-2{fill:#002766;}.cls-3{fill:#69c0ff;}.cls-32,.cls-4,.cls-7{fill:#a6d0f4;}.cls-4{opacity:0.43;}.cls-49,.cls-5,.cls-6{fill:none;stroke:#002766;}.cls-5,.cls-6{stroke-miterlimit:10;}.cls-5{stroke-width:0.53px;}.cls-6{stroke-width:1.06px;}.cls-7{opacity:0.35;}.cls-8{isolation:isolate;}.cls-9{fill:#adcdfc;}.cls-10{fill:#fff;}.cls-11{fill:#c7d8f2;}.cls-12{fill:#7baeff;}.cls-13{fill:#4da5dc;}.cls-14{fill:#232839;}.cls-15{fill:#113569;}.cls-16{fill:#113c7a;}.cls-17{fill:#112c5c;}.cls-18{fill:#c7bfce;}.cls-19{fill:#e16b40;}.cls-20{fill:#ff8654;}.cls-21{fill:#cb6a50;}.cls-22{fill:#dbdbdb;}.cls-23{fill:#f58688;}.cls-24{fill:#f5a588;}.cls-25{fill:#cf7a68;}.cls-26{fill:#f5b99c;}.cls-27{fill:#e18b70;}.cls-28{fill:#d78c63;}.cls-29{fill:#ffc5a8;}.cls-30{fill:#505e83;}.cls-31{fill:#cbdceb;}.cls-33{fill:#bac0d2;}.cls-34{fill:#c7c9d7;}.cls-35{fill:#777db2;opacity:0.2;}.cls-36{fill:#656874;}.cls-37{fill:#9c9ea6;}.cls-38{fill:#4ca15c;}.cls-39{fill:#713336;}.cls-40{fill:#e2edff;}.cls-41{fill:#3eabff;}.cls-42{fill:#3278cc;}.cls-43{fill:#3aaeef;}.cls-44{fill:#ffaa83;}.cls-45{fill:#96432a;}.cls-46{opacity:0.53;}.cls-47{fill:#747878;}.cls-48{fill:#6c7070;}.cls-49{stroke-linecap:round;stroke-linejoin:round;stroke-width:0.5px;}</style></defs><path class="cls-1" d="M748.76,498.76c51.79,25.89,52.07,67.86.61,93.75L507.84,714c-51.45,25.89-135.14,25.89-186.93,0L77.8,592.51c-51.79-25.89-52.06-67.86-.61-93.75L318.72,377.23c51.46-25.89,135.14-25.89,186.93,0Z"/><path class="cls-2" d="M749.37,479.48,507.84,601c-51.45,25.89-135.14,25.89-186.93,0L77.8,479.48c-26.06-13-39.08-30.13-39-47.2l-.08,24.18c-.06,17.08,13,34.18,39,47.21L320.83,625.19c51.8,25.89,135.48,25.89,186.93,0L749.29,503.66c25.57-12.86,38.36-29.69,38.42-46.54l.08-24.19C787.73,449.78,774.93,466.61,749.37,479.48Z"/><path class="cls-3" d="M748.76,385.73c51.79,25.89,52.07,67.86.61,93.75L507.84,601c-51.45,25.89-135.14,25.89-186.93,0L77.8,479.48c-51.79-25.89-52.06-67.86-.61-93.75L318.72,264.2c51.46-25.89,135.14-25.89,186.93,0Z"/><polygon class="cls-4" points="501.36 548.12 563.98 547.76 694.41 484.11 622.08 453.31 501.36 548.12"/><path class="cls-2" d="M115.1,264.77q2.55,2.88,2.56,8.35a28.09,28.09,0,0,1-2.51,11.31,40.59,40.59,0,0,1-6.91,10.81,38.56,38.56,0,0,1-9.67,8,20.52,20.52,0,0,1-9.63,3.12,8.59,8.59,0,0,1-7-2.8q-2.58-2.89-2.59-8.37a27.77,27.77,0,0,1,2.54-11.3,41,41,0,0,1,6.93-10.79,38.59,38.59,0,0,1,9.61-8,20.61,20.61,0,0,1,9.69-3.14A8.51,8.51,0,0,1,115.1,264.77ZM109.72,285a21.55,21.55,0,0,0,1.63-8.22c0-2.75-.56-4.85-1.67-6.29a5.36,5.36,0,0,0-4.56-2.14,13.7,13.7,0,0,0-6.64,2.17A25.68,25.68,0,0,0,91.86,276a26.11,26.11,0,0,0-4.55,7.4,21.78,21.78,0,0,0-1.63,8.19,10.41,10.41,0,0,0,1.67,6.32,5.46,5.46,0,0,0,4.57,2.2A13.52,13.52,0,0,0,98.56,298a25.81,25.81,0,0,0,6.63-5.52,26.21,26.21,0,0,0,4.53-7.46"/><path class="cls-2" d="M148.88,257.83c1.41.95,2.11,2.53,2.12,4.75a13.93,13.93,0,0,1-1.47,6,23.05,23.05,0,0,1-4.27,6.07,29.08,29.08,0,0,1-6.52,5.08l-15,8.66-.1-37.28,14.28-8.25a17.64,17.64,0,0,1,6.58-2.51,4.9,4.9,0,0,1,4.16,1.06,5.42,5.42,0,0,1,1.42,4,13.22,13.22,0,0,1-1.71,6.37,23.48,23.48,0,0,1-4.63,5.84A5.32,5.32,0,0,1,148.88,257.83Zm-5.8,12.86a8.82,8.82,0,0,0,1.77-5.21c0-1.82-.64-2.91-1.9-3.25s-2.93.08-5,1.28l-8.09,4.67,0,11.64,8.31-4.8a14.92,14.92,0,0,0,4.89-4.33M129.8,252.52l0,10.68,7.61-4.4a14.89,14.89,0,0,0,4.71-4.09,8.27,8.27,0,0,0,1.69-4.92q0-2.52-1.71-3t-4.72,1.31l-7.61,4.39"/><path class="cls-2" d="M178,219.67l.08,26.87a17.32,17.32,0,0,1-3,9.64,23.36,23.36,0,0,1-8,7.52q-5,2.87-8,1.73c-2-.76-3.06-2.8-3.06-6.12l6.19-3.58c0,1.62.47,2.68,1.28,3.18s2,.29,3.59-.62a9.5,9.5,0,0,0,3.61-3.56,9.29,9.29,0,0,0,1.23-4.61l-.08-26.87Z"/><polygon class="cls-2" points="208.72 201.9 208.73 206.89 194.17 215.29 194.2 226.24 207.14 218.77 207.16 223.76 194.22 231.23 194.25 242.65 208.81 234.25 208.82 239.24 188.12 251.19 188.02 213.85 208.72 201.9"/><path class="cls-2" d="M233.35,187.25q6-3.45,10.66-3.23a7.59,7.59,0,0,1,6.79,4.38l-7.39,4.27a4.55,4.55,0,0,0-4.06-2.07,12.9,12.9,0,0,0-6,2,26.37,26.37,0,0,0-11.17,12.9,21.59,21.59,0,0,0-1.63,8.19,10.27,10.27,0,0,0,1.67,6.29,5.47,5.47,0,0,0,4.57,2.17,13.56,13.56,0,0,0,6.63-2.14,23.56,23.56,0,0,0,6-4.9,22,22,0,0,0,4-6.74l7.38-4.26a35.86,35.86,0,0,1-6.74,12.17,39.48,39.48,0,0,1-10.64,9,20.33,20.33,0,0,1-9.66,3.13,8.64,8.64,0,0,1-6.94-2.78q-2.58-2.87-2.6-8.34A27.93,27.93,0,0,1,216.8,206a41.27,41.27,0,0,1,6.94-10.79A38.41,38.41,0,0,1,233.35,187.25Z"/><polygon class="cls-2" points="282.14 159.56 282.16 164.55 272.19 170.31 272.28 202.6 266.13 206.15 266.04 173.86 256.01 179.65 256 174.66 282.14 159.56"/><polygon class="cls-2" points="294.49 152.43 294.6 189.71 288.45 193.26 288.34 155.98 294.49 152.43"/><polygon class="cls-2" points="334.87 129.12 320.9 174.52 313.79 178.63 299.56 149.51 306.14 145.71 317.33 170.3 328.4 132.85 334.87 129.12"/><polygon class="cls-2" points="360.69 114.15 360.71 119.14 346.15 127.54 346.18 138.49 359.12 131.02 359.14 136.01 346.2 143.48 346.23 154.9 360.79 146.5 360.8 151.49 340.09 163.44 339.99 126.11 360.69 114.15"/><path class="cls-2" d="M380.32,102.39q5.44-3.14,8.93-2.44t3.87,5.21l-6.79,3.92a2.4,2.4,0,0,0-1.95-2.37q-1.78-.42-4.7,1.26a13.51,13.51,0,0,0-4.3,3.83,8.08,8.08,0,0,0-1.67,4.83,2.2,2.2,0,0,0,1.07,2.21,4.43,4.43,0,0,0,2.67.2,40.88,40.88,0,0,0,4.42-1.16,44.12,44.12,0,0,1,6.07-1.46,5.37,5.37,0,0,1,4,.83c1.1.79,1.65,2.35,1.66,4.72a15.35,15.35,0,0,1-1.52,6.24,25.38,25.38,0,0,1-4.46,6.64,28.57,28.57,0,0,1-6.93,5.52A19.14,19.14,0,0,1,373.9,143a5.89,5.89,0,0,1-4.76-1c-1.15-.95-1.73-2.49-1.74-4.64l6.58-3.8a3,3,0,0,0,1.92,2.87q1.71.57,4.78-1.21a15,15,0,0,0,5-4.39,8.77,8.77,0,0,0,1.76-5c0-1.26-.37-2.07-1.11-2.42a4.4,4.4,0,0,0-2.75-.24,39.59,39.59,0,0,0-4.57,1.23,38.24,38.24,0,0,1-6,1.48,5.2,5.2,0,0,1-3.91-.82q-1.64-1.16-1.64-4.64a15,15,0,0,1,1.6-6.57,24,24,0,0,1,4.52-6.32A31.25,31.25,0,0,1,380.32,102.39Z"/><polyline class="cls-5" points="55.7 302.06 55.7 374.6 118.94 410.19"/><ellipse class="cls-6" cx="55.3" cy="296.92" rx="7.51" ry="6.5"/><path class="cls-7" d="M510,441.05c0,14.46-21.31,26.19-47.6,26.19s-47.6-11.73-47.6-26.19,21.31-26.19,47.6-26.19S510,426.59,510,441.05Z"/><ellipse class="cls-7" cx="553.9" cy="385.97" rx="85.28" ry="46.91"/><g class="cls-8"><path class="cls-9" d="M489.29,375c1,9.65,11.5,16.21,21,19.74A91.61,91.61,0,0,0,543.1,400c11.41-.13,23.07-2,33.37-6.41,9-3.82,18.52-10.77,18.49-20.21,0,6.87-.53,12.56-6.26,17.93-7.37,6.91-18.46,10.63-28.9,12.5-20.36,3.64-48.08,1.88-63.54-11.69-6.23-5.46-7.08-11.22-7.1-18.48A12.15,12.15,0,0,0,489.29,375Z"/><path class="cls-10" d="M504.79,357.44c-20.73,10.36-20.86,27.16-.27,37.52s54.11,10.36,74.84,0,20.81-27.16.22-37.52S525.51,347.08,504.79,357.44Z"/></g><g class="cls-8"><polygon class="cls-11" points="536.45 343.45 536.54 381.59 542.08 384.38 541.99 346.24 536.45 343.45"/><polygon class="cls-12" points="541.99 346.24 542.08 384.38 547.65 381.59 547.56 343.45 541.99 346.24"/><polygon class="cls-13" points="533.87 336.5 541.96 340.57 550.1 336.5 542.01 332.43 533.87 336.5"/></g><path d="M594.57,206.68s16.66,8.47,21.08,17.09,3.24,69-20,95.85-66.33,30.62-76.28,26.8S452,317.7,447.55,305.26s17.69-22,29.85-26.8,19.9-11.48,26.53-28.71,9.95-46.9,17.69-51.68S548.15,185.62,594.57,206.68Z"/><path class="cls-14" d="M512,337.89c-8.11-3.12-47.81-20.24-64.6-33.2-3.55-12.16,18-21.52,30-26.23,12.16-4.78,19.9-11.48,26.53-28.71s9.95-46.9,17.69-51.68,26.53-12.45,73,8.61a88.47,88.47,0,0,1,13.89,9c4.18,10,2.68,69-20.17,95.38C565.08,337.89,522,341.72,512,337.89Z"/><path class="cls-15" d="M507.73,213.19s-4.92,1.47-8.62,12.13S485,255.17,488.65,263.7s14.77,3.73,17.85-2.67,15.37-36,12.92-40.4S512.64,211.72,507.73,213.19Z"/><path class="cls-14" d="M477.65,431.24a30.83,30.83,0,0,1-3.06,6.75c-2.18,3.6-10,8.42-13.32,10.87s-7.41,7-7,9.16,8.4,2.7,14.68,1.51,11.76-7.23,13.6-7.11,8.73-1,10.15-3.07-1-10.22-1-10.22l-.09-5.89Z"/><path class="cls-14" d="M446.87,414.19a30.88,30.88,0,0,1-3.06,6.74c-2.18,3.6-10,8.42-13.32,10.88s-7.41,7-7,9.15,8.4,2.7,14.68,1.52,11.76-7.24,13.6-7.12,8.73-1,10.15-3.07-.95-10.22-.95-10.22l-.09-5.88Z"/><path class="cls-16" d="M563.55,296.92s.82,11.37-6.57,20.61-37.76,32.69-41,34.83-4.1,17.76-7.39,24.87-13.13,53.3-14.77,56.85c0,0-1.64,3.56-13.13,1.43-6.57-.72-7.39-2.85-7.39-2.85s4.1-51.88,7.39-64,4.1-25.58,9.85-30.56,33.65-36.24,33.65-36.24l6.57-9.24Z"/><path class="cls-16" d="M512.66,285.55s-44.33,21.32-50.48,26.12-10.47,11.19-11.7,17.06c-.49,2.34-4.92,84.74-6.77,88.47-.62,3.2,11.08,5.34,16.62,3.74a19.72,19.72,0,0,0,5.54-4.8S477,366.57,477,359.64s4.93-27.72,4.93-27.72L533,306.87l3.7-11.19Z"/><path class="cls-17" d="M561.91,304.21s-4.31,10.66-22.17,9.06l-6.15-1.07-1.23-8.53s-10.47-1.06-17.24-5.86c-2.46,1.07-3.08,6.4-5.54,6.93s-6.77-6.93-5.54-12.26,4.31-3.2,4.31-3.2S558.83,299.94,561.91,304.21Z"/><path class="cls-18" d="M543.06,207.68s21.06,13,23.15,17.36,2.53,16.4-1.82,24.45-2.75,37.63-4.31,43.42-19.6,7.62-30.75,5.75-24.66-8.86-24.23-20.12.14-32.27-.57-37.34.06-17.82,2.79-26.36c.57-1.8,7.57-3.7,7.57-3.7S522.29,206.91,543.06,207.68Z"/><path class="cls-19" d="M524.74,205.22a1.72,1.72,0,0,1,0,.59c-.23,1.33-1,4.75-1.14,6.18s1.65,3.74,5.92,3.67,11.51-1.62,13.92-6a89.37,89.37,0,0,1,.71-13Z"/><path class="cls-10" d="M543.62,206.84s-3.39,9-14.91,8.79l-.76,0,5.81,8.1s8.85-4.6,11.63-7.23a8.65,8.65,0,0,0,2.53-6.34Z"/><path class="cls-10" d="M528,215.6l-6.07,5s-4.55-3.28-1.77-10.94l3.79-1.31A7.94,7.94,0,0,0,528,215.6Z"/><path class="cls-20" d="M515.77,180c2.24-10.4,11.76-16.3,22.52-14.12,0,0,11.67,1,16.85,9.88s-2.43,16.33-7.31,21c-2.05,1.93-3.6,3.42-4.58,4.37-.36.35-.71.72-1.08,1l-.1.11h0a25.46,25.46,0,0,1-10,5.24c-4.7,1.21-10.25.52-13.24-2.25S513.52,190.38,515.77,180Z"/><path class="cls-16" d="M547.92,210.13s3.16,2.62-1,9.19a62.46,62.46,0,0,0-9.1,30.2c-.38,12.48-2.28,51.55-.38,60.08,3.79,3,22,.33,27.3-7.55,2.27-11.49,1.14-46.29,3.79-53.51s1.9-20.36.38-24C567,221,552.34,211.11,547.92,210.13Z"/><path class="cls-16" d="M518.6,209.91a79,79,0,0,0-3,24.07c0,12.92-4.29,66.54-5,67.63s-9.61-5.69-9.86-13.57,3-56.25,3.54-61.06,2.27-12.91,3.54-13.79S517.08,210.13,518.6,209.91Z"/><polygon class="cls-16" points="522.99 218.25 525.72 223.24 531.49 219.3 527.95 215.6 522.99 218.25"/><path class="cls-16" d="M524.51,220.09s-5.44,60-5.44,62.61l3.64,5.52,4.86-4.47,1.79-64.19Z"/><g class="cls-8"><polygon class="cls-21" points="227.46 421.84 217.43 416.8 217.16 317.68 227.18 322.72 227.46 421.84"/><polygon class="cls-22" points="227.18 322.72 217.16 317.68 353.42 249.56 363.45 254.6 227.18 322.72"/><polygon class="cls-23" points="363.45 254.6 363.73 353.72 227.46 421.84 227.18 322.72 363.45 254.6"/></g><polygon class="cls-24" points="236.94 303.88 236.67 403 509.81 538.49 510.08 439.37 236.94 303.88"/><polygon class="cls-25" points="236.79 359.33 509.93 494.81 510.08 439.37 236.94 303.88 236.79 359.33"/><g class="cls-8"><polygon class="cls-21" points="501.36 548.12 491.33 543.07 491.06 443.95 501.09 449 501.36 548.12"/><polygon class="cls-22" points="501.09 449 491.06 443.95 627.33 375.83 637.36 380.88 501.09 449"/><polygon class="cls-26" points="637.36 380.88 637.63 480 501.36 548.12 501.09 449 637.36 380.88"/></g><g class="cls-8"><polygon class="cls-27" points="656.04 378.3 656.01 387.62 501.5 465.37 501.53 456.05 656.04 378.3"/><polygon class="cls-28" points="501.53 456.05 501.5 465.37 194.39 311.85 194.42 302.52 501.53 456.05"/><polygon class="cls-29" points="656.04 378.3 501.53 456.05 194.42 302.52 348.93 224.78 656.04 378.3"/></g><path class="cls-16" d="M567.86,222.48s4.1,2.84,7.38,11.73,5.34,39.79,5.34,44.41,0,9.95-4.51,12.44-9.85,2.13-12.73-2.49-4.92-30.91-7-39.09-5.34-16.34-1.23-21.67S564.57,221.77,567.86,222.48Z"/><path class="cls-20" d="M521.28,312.38s-2.06,1.24-3.08,1.78-4.93,2.66-6.77,3.73-3.9,4.79-4.52,5.51-2.46,4.44-2.05,5.33,1.64.35,1.64.35,2.26,2.13,4.72,2,4.52-2.85,4.52-2.85,1.64-1.24,3.48-2.66a14.48,14.48,0,0,0,3.29-4.62l2.46-1.42S526.82,317.89,521.28,312.38Z"/><path class="cls-10" d="M529,318.33s-2.56-6.31-5.64-7.9l-3.49,2.13s3.9,3.91,4.51,7.64Z"/><path class="cls-16" d="M529,318.33a15.84,15.84,0,0,0,6.16-1.77c3.69-1.78,11.8-7.73,17.13-9.51s16-7.46,22.16-12.08a16.28,16.28,0,0,0,6.16-12.08c-2.05-2.85-7.8-5.33-14.36-3.2s-14.78,7.46-22.17,12.79-20,15.9-20,15.9l-2.16,2.22S526.41,312,529,318.33Z"/><path class="cls-30" d="M516.17,178.16S512.28,173.28,514,168s9.52-3,13.85-3.37,21.22,0,26.85,6.37c5.19,6.38,3,9.37,3,9.37a15.84,15.84,0,0,1-1.3,9c-2.17,4.13-13.19,11.75-13.19,11.75s6.26-6.88,6.69-10.25-1.73-5.25-3-4.5-2.16,7.13-2.16,7.13l-.61,3.1c-2.86-.86-2-6.1-2-6.1a18.27,18.27,0,0,1-3-5.63c-.87-3-1.3-4.5-4.76-6S524,173.66,516.17,178.16Z"/><path class="cls-20" d="M443.21,234.1s-2.21-1-3.22-1.58-5-2.62-6.89-3.57-6.7-.86-7.71-1-5.69.09-6.42.8.37,1.43.37,1.43-1.19,2.71.1,4.53,5,2.22,5,2.22l4.32,1.5a19.55,19.55,0,0,0,6.24.46l2.58,1.27S440,240.86,443.21,234.1Z"/><path class="cls-10" d="M440.53,242.72s5.35-4.81,5.62-7.91l-3.77-1.74s-2.28,4.77-5.85,6.92Z"/><path class="cls-15" d="M440.53,242.72s1.1,1.91,4.59,4,13.28,5.65,17.51,9,14.89,9,22.42,11.72,15.24-.67,15.24-.67c2-2.86,2-8.43-3.16-12.55S482.79,246.1,474,242.78s-25.4-8.33-25.4-8.33l-3.26-.67S445.88,237.91,440.53,242.72Z"/><polygon class="cls-27" points="509.88 392.21 541.07 407.9 591.55 382.67 560.36 366.97 509.88 392.21"/><polygon class="cls-31" points="504.14 382.88 504.17 389.58 535.37 405.27 535.34 398.58 504.14 382.88"/><polygon class="cls-32" points="535.34 398.58 535.37 405.27 585.85 380.04 585.82 373.35 535.34 398.58"/><polygon class="cls-10" points="504.14 382.88 535.34 398.58 585.82 373.35 554.63 357.65 504.14 382.88"/><polygon class="cls-27" points="296.44 312.13 327.64 327.83 378.12 302.59 346.93 286.89 296.44 312.13"/><polygon class="cls-31" points="290.71 302.8 290.74 309.5 321.93 325.2 321.91 318.5 290.71 302.8"/><polygon class="cls-32" points="321.91 318.5 321.93 325.2 372.41 299.96 372.39 293.27 321.91 318.5"/><polygon class="cls-10" points="290.71 302.8 321.91 318.5 372.39 293.27 341.19 277.57 290.71 302.8"/><polygon class="cls-10" points="465.41 360.98 496.61 376.68 547.09 351.44 515.89 335.75 465.41 360.98"/><path class="cls-27" d="M492.56,331.15c7.15,3.57,7.15,9.34.08,12.9L447,367c-7.07,3.56-18.56,3.58-25.71,0l-46-23c-7.12-3.56-7.15-9.34-.08-12.9l45.67-23c7.07-3.56,18.6-3.56,25.71,0Z"/><g class="cls-8"><path class="cls-33" d="M451.83,337.15v0a1.35,1.35,0,0,1-.2.31l0,0a2,2,0,0,1-.3.28l-.24.15c-.1.06-.18.12-.3.18l-18.93,9.1L411.39,337v1.23l20.44,10.22,18.94-9.11.11-.06a2,2,0,0,0,.19-.12,1.3,1.3,0,0,0,.23-.15l0,0a2.4,2.4,0,0,0,.23-.21l0,0,0,0,.09-.11a.76.76,0,0,0,.09-.18v0a0,0,0,0,0,0,0,.65.65,0,0,0,0-.13.57.57,0,0,0,0-.18v-1.26A.83.83,0,0,1,451.83,337.15Z"/><path class="cls-10" d="M450.82,335.5c1.47.73,1.44,1.92-.06,2.64l-18.93,9.1L411.39,337l16-10.55a6.46,6.46,0,0,1,5.29-.05Z"/></g><g class="cls-8"><path class="cls-34" d="M478.84,296.84A6.71,6.71,0,0,1,482.2,301L492,358c.26,1.49-.83,2.05-2.43,1.25l-99.91-50a6.64,6.64,0,0,1-3.35-4.14l-9.8-57c-.25-1.49.83-2.05,2.43-1.26Z"/><path class="cls-10" d="M493.62,357.47v0a.37.37,0,0,0,0-.11v-.12a.37.37,0,0,1,0-.11s0-.07,0-.1l-9.8-57h0a.52.52,0,0,0,0-.11s0-.08,0-.11l0-.12a.36.36,0,0,1,0-.11.36.36,0,0,0,0-.11h0s0-.08,0-.12a1.17,1.17,0,0,1-.05-.11l-.05-.12a1.17,1.17,0,0,0-.05-.11l-.06-.12h0l-.05-.08,0-.1-.05-.09-.05-.07a.59.59,0,0,0,0-.08l0-.07a.43.43,0,0,0,0-.07l0,0h0l0,0,0-.07,0-.06-.05-.07,0-.06,0-.06-.06-.08-.06-.09s0,0-.05-.05h0l0-.05c-.1-.12-.21-.24-.32-.35l-.09-.1,0,0h0l0,0L482,297l-.06-.06-.06-.06-.06-.05-.06-.06-.07-.05-.06-.06,0,0h0l-.07-.06-.08-.06a.27.27,0,0,1-.08-.07l-.1-.07-.1-.07-.12-.08h0l-.1-.07-.12-.07-.13-.07-.12-.07-.12-.06-99.91-50h0l-.12-.06-.11,0-.12-.05-.11,0-.11,0h0l-.07,0-.12,0-.11,0-.12,0-.11,0h-.26l-.15,0h-.07l-.11,0a.8.8,0,0,0-.25.11l-1.6,1a.93.93,0,0,1,.36-.14h0a1.34,1.34,0,0,1,.45,0h0a2.25,2.25,0,0,1,.54.11h0a4.68,4.68,0,0,1,.6.24l99.91,50a6.08,6.08,0,0,1,.59.35h0a4.73,4.73,0,0,1,.57.43h0a6.15,6.15,0,0,1,.53.49h0c.17.17.33.35.48.53h0q.23.29.42.57h0a5.08,5.08,0,0,1,.35.59h0a5.05,5.05,0,0,1,.26.59h0a4.38,4.38,0,0,1,.15.57L492,358a2.74,2.74,0,0,1,0,.48h0a1.59,1.59,0,0,1-.07.39v0a.94.94,0,0,1-.12.22.89.89,0,0,1-.29.32h0l1.6-1a1,1,0,0,0,.29-.32s0,0,0,0,0-.1.07-.16v-.05a.19.19,0,0,0,0-.08l0-.12s0-.08,0-.12v-.06Z"/></g><polygon class="cls-35" points="423.5 329.04 411.39 337.03 431.83 347.24 446.14 340.36 423.5 329.04"/><polygon class="cls-33" points="436.12 312.15 431.82 348.58 411.31 338.3 419.32 304.21 436.12 312.15"/><polygon class="cls-27" points="494.56 426.92 505.88 421.48 489.87 414.3 494.56 426.92"/><g class="cls-8"><polygon class="cls-36" points="498.05 410.68 501.17 409.69 497.67 425.92 494.56 426.92 498.05 410.68"/><polygon class="cls-37" points="446.89 385.9 450.01 384.9 501.17 409.69 498.05 410.68 446.89 385.9"/><polygon class="cls-14" points="498.05 410.68 494.56 426.92 443.4 402.13 446.89 385.9 498.05 410.68"/></g><path class="cls-27" d="M317.81,276.2c4.35,2.17,4.37,5.69.06,7.86a19.67,19.67,0,0,1-15.65,0c-4.34-2.17-4.36-5.68-.05-7.85A19.68,19.68,0,0,1,317.81,276.2Z"/><g class="cls-8"><path class="cls-10" d="M319.11,256.85,319,278.14c0,1.32-1,2.63-3,3.63a18.3,18.3,0,0,1-14.58,0c-2-1-3.05-2.35-3-3.68l.06-21.3c0,1.33,1,2.67,3.05,3.68a18.34,18.34,0,0,0,14.58,0C318.11,259.48,319.1,258.16,319.11,256.85Z"/><path class="cls-31" d="M316.06,253.16c4.05,2,4.07,5.3.06,7.32a18.34,18.34,0,0,1-14.58,0c-4-2-4.06-5.29-.05-7.31A18.36,18.36,0,0,1,316.06,253.16Z"/><path class="cls-27" d="M314.45,254c3.15,1.58,3.17,4.13.05,5.7a14.25,14.25,0,0,1-11.36,0c-3.14-1.57-3.15-4.12,0-5.69A14.24,14.24,0,0,1,314.45,254Z"/></g><path class="cls-38" d="M300.86,257.46s-5.17-14.88-7-17.12c0-2,4.72.39,6.54,4.08s3.5,12,3.5,12-.3-19.09,3.5-23.3c2.43.52.91,21.46.61,23,0,0,7.6-14,12.62-16.86,2.28.27-7.3,17.52-7.3,17.52s3.95-6.45,11.1-7.64c0,0-5.62,7-7.91,8.82,0,0-2.58,3.43-9.43,2.77C307.09,260.75,302.38,260.49,300.86,257.46Z"/><path class="cls-32" d="M750.17,419.77c10.67,5.33,10.73,14,.15,19.28s-27.78,5.32-38.45,0-10.69-14-.12-19.27S739.53,414.45,750.17,419.77Z"/><g class="cls-8"><path class="cls-31" d="M753.36,372.25l-.17,52.29c0,3.22-2.46,6.44-7.35,8.9-9.85,5-25.87,5-35.81,0-5-2.49-7.47-5.77-7.46-9l.17-52.28c0,3.27,2.48,6.54,7.46,9,9.94,5,26,5,35.81,0C750.9,378.69,753.35,375.47,753.36,372.25Z"/><path class="cls-10" d="M745.87,363.2c9.93,5,10,13,.14,17.95s-25.87,5-35.81,0-10-13-.11-17.94S736,358.24,745.87,363.2Z"/><path class="cls-39" d="M741.93,365.18c7.73,3.87,7.77,10.13.11,14s-20.15,3.85-27.89,0-7.75-10.12-.09-14S734.21,361.33,741.93,365.18Z"/></g><path class="cls-38" d="M708.54,373.74s-12.7-36.55-17.18-42c0-4.85,11.58,1,16.06,10S716,371.15,716,371.15s-.75-46.89,8.59-57.24c6,1.3,2.24,52.71,1.49,56.59,0,0,18.68-34.28,31-41.39,5.61.65-17.92,43-17.92,43s9.71-15.85,27.26-18.76c0,0-13.82,17.14-19.42,21.67,0,0-6.35,8.41-23.16,6.79C723.85,381.82,712.27,381.17,708.54,373.74Z"/><path class="cls-7" d="M222.42,505.1c0,23.37,34.45,42.32,76.93,42.32s76.93-18.95,76.93-42.32-34.44-42.32-76.93-42.32S222.42,481.73,222.42,505.1Z"/><path class="cls-14" d="M331.56,514.25s-3.06,10.58-1.23,12.7,7.34,3.71,11.62,2.65,7.34-5.82,7.34-5.82,10.39-5.3,12.83-8.47a4.47,4.47,0,0,0,0-5.83,39.6,39.6,0,0,0-10.39.53,123,123,0,0,0-12.23,3.71Z"/><path class="cls-14" d="M300.38,499.43s-3.06,10.58-1.22,12.7,7.33,3.71,11.61,2.65,7.34-5.82,7.34-5.82,10.39-5.3,12.84-8.47a4.49,4.49,0,0,0,0-5.83,39.68,39.68,0,0,0-10.4.53,122.42,122.42,0,0,0-12.22,3.71Z"/><polygon class="cls-10" points="394.02 344.72 355.56 378.71 318.19 370.31 356.66 336.31 394.02 344.72"/><g class="cls-8"><path class="cls-40" d="M352.72,346.8,356.4,348a13.92,13.92,0,0,1,10.82-1.49l.2.07,3.06-2.17-.2-.07C365,342.62,357.18,343.72,352.72,346.8Z"/><path class="cls-40" d="M352.25,347.14c-3.57,2.74-3.36,6,.27,7.93l3.15-2.24c-1.67-1.19-1.63-3,.27-4.48Z"/><path class="cls-41" d="M353,355.31a11.49,11.49,0,0,0,1.22.48c5.2,1.7,12.87.66,17.36-2.32l-3.69-1.21a14,14,0,0,1-10.62,1.35,6.33,6.33,0,0,1-1.17-.5Z"/></g><path class="cls-41" d="M368,346.81c2.58,1.16,2.81,3.33.43,5.12l3.69,1.2c4.06-3,3.56-6.67-1.05-8.51Z"/><path class="cls-15" d="M322.92,453.74c-1.51,10.45-7.54,37.87-8.55,47.45,0,0-2.51,3.48-10.05,2.61l-3.58-1.29a3,3,0,0,1-2.12-3.15c.76-5.28,2.47-18.57,1.68-26.46-1-10,2-16.11,2-16.11-.25-3.26-.76-14.58,6.78-17.63,0,0,18.48-2.94,13.83,14.58"/><path class="cls-16" d="M307.59,444l2,3.48s30.91,1.31,39.21,9.14c0,0,9.73,3.12,8.22,13.57s-11.74,35.62-12.75,45.2c0,0-2.51,3.48-10,2.61l-3.58-1.29a3,3,0,0,1-2.11-3.15c.75-5.28,2.46-18.58,1.67-26.47-1-10,2-16.1,2-16.1a176.29,176.29,0,0,0-28.15,7.4c-14.58,5.22-27.15-.87-32.68-3.49s-7.54-4.35-7.54-4.35a25.3,25.3,0,0,1-13.58-4.79c-6.53-4.78-7.54-17.41-.5-24.81S307.59,444,307.59,444Z"/><path class="cls-20" d="M296.53,377.79s-1,0-.63-5.75c1.51-5.69,2.85-7.05,2.85-7.05s-10.53-6.25-19-4.49c0,0-5.21,9.15-11.1,13.07C268.69,373.57,273.4,384.32,296.53,377.79Z"/><path class="cls-15" d="M285.59,381.05s-18.47-13.38-22.24-13.71c-4.53-.32-10.18,1-11.69,6.53a9.76,9.76,0,0,0,5.28,11.43c3.39,1.63,33.18,14,38.45,14s8.68-3.91,5.28-8.81S285.59,381.05,285.59,381.05Z"/><path class="cls-16" d="M279.94,372.13s19.6,5.66,25.13,13.49,4.53,16.54.5,28.73,4,23.07,2,29.6-16.09,12.62-36.7,9.58-22.12-10-23.63-13.93,4-22.64-1-37.87a24.89,24.89,0,0,1,9.05-28.29C259.32,370.82,267.37,367.34,279.94,372.13Z"/><path class="cls-10" d="M298.66,379.53s-5.28,2.94-18.47,1.31-13.95-9.8-12.82-10.45a22.47,22.47,0,0,0,3.39-3.27s13.95,5.55,18.85,7.19,7.54,2.61,7.54,2.61Z"/><g class="cls-8"><path class="cls-9" d="M241.63,523c.69,6.59,7.84,11.06,14.3,13.47a62.27,62.27,0,0,0,22.41,3.6,60,60,0,0,0,22.76-4.37c6.13-2.61,12.64-7.35,12.62-13.79,0,4.69-.37,8.57-4.27,12.23-5,4.72-12.6,7.26-19.72,8.53-13.89,2.48-32.8,1.28-43.35-8-4.24-3.73-4.82-7.66-4.84-12.61C241.56,522.35,241.59,522.65,241.63,523Z"/><path class="cls-10" d="M252.2,509.15c-14.14,7.06-14.23,18.52-.18,25.59s36.92,7.07,51,0,14.2-18.53.15-25.59S266.34,502.08,252.2,509.15Z"/></g><g class="cls-8"><polygon class="cls-11" points="271.2 494.86 271.29 522.17 276.81 524.95 276.72 497.64 271.2 494.86"/><polygon class="cls-12" points="276.72 497.64 276.81 524.95 282.36 522.17 282.27 494.86 276.72 497.64"/><polygon class="cls-13" points="271.2 494.86 276.72 497.64 282.27 494.86 276.75 492.08 271.2 494.86"/></g><path class="cls-42" d="M206.17,393.38c.16-3.78,4.5-6.36,8.63-5.1,18,5.47,60.06,26.66,62.71,31.26,2.53,4.38,10.71,28.86,14.73,41.12,1.17,3.55,5.88,5.17,9.55,3.3l25-12.76c4.75-2.42,10.61,1.06,9.71,5.77l-4,20.84a5.72,5.72,0,0,1-3.17,3.95l-26.73,13.3a58.49,58.49,0,0,1-48.6,1.21l-20.6-8.92c-18-7.8-29.12-29-28.38-46.47Z"/><path class="cls-43" d="M277.51,419.54c2.53,4.38,10.71,28.86,14.73,41.12,1.17,3.55,5.88,5.17,9.55,3.3l25-12.76c4.75-2.42,10.61,1.06,9.71,5.77l-4,20.84a5.21,5.21,0,0,1-.51,1.38c-.32.44-.64.87-1,1.3a6.15,6.15,0,0,1-1.69,1.27l-26.73,13.3a57.28,57.28,0,0,1-18.08,5.43C262.8,485.92,265.54,425.12,273.4,420a11.12,11.12,0,0,1,3.1-1.48A3.8,3.8,0,0,1,277.51,419.54Z"/><path class="cls-16" d="M326.87,398.86s-21.5-15.9-25.27-16.23c-4.52-.33-8.22,5.71-9.72,11.26a9.76,9.76,0,0,0,5.27,11.43c3.4,1.63,33.18,14,38.46,14s11-5.72,7.56-10.62S326.87,398.86,326.87,398.86Z"/><path class="cls-44" d="M351.83,379.86a11,11,0,0,0,1.13-2.78c.18-1.14-.57-2.61.18-5.22s2.08-4.9,2.64-6.69c1.51-1.64,2.83,1.3,1.7,3.75s-.75,3.92.38,4.08,5.84-2.28,7.16-3.59,8.86-7.67,9.62-6.86.75,1.64-1.89,4.08-3.58,3.6-3.77,4.25a9.68,9.68,0,0,1-.94,3.26c-.94,2-.19,3.27-1.89,5.06s-4.9,2.13-6.41,3.27l-1.5,1.14Z"/><path class="cls-16" d="M335.61,419.36a12.23,12.23,0,0,0,12.19-6.31c4.28-7.62,11.57-28.08,12.57-30a9.58,9.58,0,0,0-8.8-4.57s-7,12-11.06,17.41S322.16,417.18,335.61,419.36Z"/><path class="cls-20" d="M309.07,345.33c0,10.3-9.64,18.65-21.54,18.65S266,355.63,266,345.33s9.64-18.64,21.53-18.64S309.07,335,309.07,345.33Z"/><path class="cls-20" d="M309.07,346.58s.26,18.67-4.44,22.44-11.91-3.53-23.44-5.87c-11.54-2.56,9.35-22,9.35-22Z"/><path class="cls-45" d="M269.43,330s23-11.56,35.91-2-1.84,13.55-4.14,16.34,0,5.05-1.23,7-1.53,2.39-1.53,2.39l.76,2.4-1.38,1.06s-1.84-4.52-3.53-4.39-3.07,3.06-2.45,4.79,2.3,3.59,2,4.78S291.68,367,290,367.1s-9.37-1.33-12-2.52-10.59-6.65-13.66-13.29a12.15,12.15,0,0,1,1.23-12.09A7.56,7.56,0,0,1,269.43,330Z"/><rect class="cls-2" x="80.39" y="335.67" width="6.73" height="5.83"/><rect class="cls-2" x="91.61" y="345.38" width="15.7" height="13.59"/><polygon class="cls-2" points="116.45 224.4 116.46 227.56 83.03 244.27 83.02 241.11 116.45 224.4"/><polygon class="cls-2" points="99.9 225.34 99.91 228.5 83.01 236.94 83 233.78 99.9 225.34"/><polygon class="cls-2" points="89.53 221.38 89.54 224.58 82.98 227.85 82.97 224.66 89.53 221.38"/><path class="cls-2" d="M578.54,96.1c10.23,5.11,18.54,17.57,18.5,27.74l-.07,24c0,10.17-8.4,14.29-18.62,9.18l-25.3-12.64-11.18,8,0-13.57-18.3-9.15c-10.22-5.11-18.53-17.57-18.5-27.74l.08-24c0-10.18,8.39-14.3,18.62-9.19ZM595.28,147l.07-24c0-9.26-7.5-20.57-16.81-25.22L523.8,70.42c-9.3-4.65-16.89-.91-16.92,8.35l-.08,24c0,9.26,7.51,20.57,16.82,25.22l20,10,0,10.55,8.72-6.21,26.06,13c9.31,4.65,16.9.91,16.93-8.35"/><path class="cls-2" d="M544.06,92.84v2a1.83,1.83,0,0,1-2.72,1.36l-11.2-5.58a1.55,1.55,0,0,1-.91-1.37v-2A1.83,1.83,0,0,1,532,85.89l11.2,5.59A1.55,1.55,0,0,1,544.06,92.84Z"/><path class="cls-2" d="M579.51,120.62v2A1.82,1.82,0,0,1,576.8,124l-46.66-23.16a1.55,1.55,0,0,1-.91-1.36V97.46A1.83,1.83,0,0,1,532,96.1l46.65,23.15A1.54,1.54,0,0,1,579.51,120.62Z"/><g class="cls-46"><path class="cls-2" d="M560.28,131.5v2.06a1.83,1.83,0,0,1-2.72,1.36l-27.42-13.61a1.55,1.55,0,0,1-.91-1.36v-2.06a1.82,1.82,0,0,1,2.71-1.36l27.42,13.61A1.53,1.53,0,0,1,560.28,131.5Z"/></g><path class="cls-2" d="M572.28,127.24v2.06a1.83,1.83,0,0,1-2.72,1.36L530.15,111.1a1.55,1.55,0,0,1-.92-1.37v-2a1.83,1.83,0,0,1,2.72-1.37l39.42,19.57A1.55,1.55,0,0,1,572.28,127.24Z"/><polygon class="cls-2" points="651.21 192.03 651.2 195.19 684.63 211.9 684.64 208.74 651.21 192.03"/><polygon class="cls-2" points="667.76 192.97 667.75 196.13 684.65 204.58 684.66 201.41 667.76 192.97"/><polygon class="cls-2" points="678.13 189.02 678.12 192.21 684.68 195.49 684.69 192.3 678.13 189.02"/><path class="cls-47" d="M681.21,295.35a10.16,10.16,0,0,0,3.33,2.8,6.24,6.24,0,0,0,.76.33c-1.34-.43-2.71-.94-4.09-1.53Z"/><path class="cls-48" d="M680.68,234.39l.17.1c-.66-.38-1.32-.76-2-1.09l.44.24c.42.21.86.44,1.28.68Z"/><g class="cls-8"><path class="cls-47" d="M679.49,285.36l.92.41.05,0C680.14,285.66,679.82,285.51,679.49,285.36Z"/><path class="cls-47" d="M683.37,286.89a4.3,4.3,0,0,0-2.13-.05v-.72C682,286.41,682.67,286.67,683.37,286.89Z"/><path class="cls-47" d="M683.8,236.35c.49.33,1,.68,1.45,1a44.51,44.51,0,0,0-4.4-2.9c.19.11.38.2.56.31v-.72A11,11,0,0,0,683.8,236.35Z"/><path class="cls-49" d="M678.89,222.6c.87.44,1.72.89,2.56,1.38v1.59a3,3,0,0,0-2.12,3.21,9,9,0,0,0,2.09,5.3v.72c-.84-.5-1.69-1-2.56-1.4-14.3-7.15-25.94-1.41-26,12.84s11.52,31.58,25.83,38.73l.8.39c.33.15.65.3,1,.43l.78.33v.72a3,3,0,0,0-2.12,3.19,8.93,8.93,0,0,0,2.09,5.32V297l-.73-.32q-.9-.4-1.83-.87C658.35,285.61,642,261,642,240.82S658.59,212.46,678.89,222.6Z"/><path class="cls-2" d="M684.78,226.1a7.18,7.18,0,0,1,.75.43l.28.18c14.11,9.74,25.33,26.07,28.7,41.55,0,.17.06.31.09.45s.07.34.1.46.06.34.09.47.06.35.08.48.06.31.08.43l.08.5.07.5c0,.33.09.64.13.94s0,.34,0,.46,0,.34.05.45,0,.35,0,.46,0,.33,0,.43c0,.27,0,.36,0,.45,0,.26,0,.35,0,.44,0,.27,0,.36,0,.45s0,.12,0,.19a1.77,1.77,0,0,0,0,.23v.21a2.35,2.35,0,0,1,0,.26c0,.29,0,.4,0,.51v1c0,.21,0,.32,0,.43s0,.34,0,.42a1.41,1.41,0,0,0,0,.2,1.77,1.77,0,0,0,0,.23,1.09,1.09,0,0,0,0,.18c0,.08,0,.16,0,.25,0,.25,0,.33,0,.42,0,.24,0,.33,0,.41,0,.25,0,.34,0,.43s0,.33,0,.42,0,.32-.05.42,0,.31-.06.42c-.05.35-.09.61-.14.88s-.05.26-.07.38-.06.28-.08.38l-.08.39c0,.17-.06.27-.08.37s-.07.29-.1.38-.07.27-.09.37l-.11.39c-.05.16-.08.28-.11.39-3.58,11.82-14.79,16.74-28.77,12.41l-.28-.1a6.24,6.24,0,0,1-.76-.33,10.16,10.16,0,0,1-3.33-2.8,8.93,8.93,0,0,1-2.09-5.32,3,3,0,0,1,2.12-3.19,4.26,4.26,0,0,1,2.12.05l.27.07a19.69,19.69,0,0,0,11,.52l.42-.13.43-.14.42-.15.39-.16.38-.17.39-.18.38-.2.38-.21c.19-.12.28-.18.38-.23l.33-.22.34-.24.34-.26.34-.28.33-.29.32-.3c.16-.16.23-.22.29-.29l.1-.11.18-.2a.52.52,0,0,0,.1-.11l.2-.22.27-.34.28-.36.26-.38.25-.39.22-.36c.11-.19.17-.29.22-.39s.16-.3.22-.41.15-.32.21-.43l.19-.44.19-.45c.07-.2.12-.33.17-.46s.11-.32.15-.45.1-.32.14-.46l.14-.48c.05-.23.09-.36.12-.5s.09-.38.11-.52a5.24,5.24,0,0,0,.1-.53c0-.2.06-.36.09-.52s0-.34.07-.5,0-.39.06-.55,0-.4,0-.56,0-.4,0-.57,0-.42,0-.59,0-.42,0-.6,0-.37,0-.56,0-.4,0-.58,0-.43,0-.6,0-.44,0-.61,0-.43-.05-.61,0-.44-.08-.63-.05-.39-.07-.59-.06-.4-.1-.59-.06-.42-.1-.6-.08-.45-.12-.63-.09-.44-.13-.63c-.14-.65-.29-1.26-.46-1.86-.06-.21-.11-.41-.17-.61-.13-.43-.26-.84-.39-1.25a52.23,52.23,0,0,0-15.84-22.94l-.47-.39-.51-.41-.21-.17-.28-.21-.32-.25c-.53-.4-1-.75-1.5-1.08a11,11,0,0,1-2.39-2.27,9,9,0,0,1-2.09-5.3,3,3,0,0,1,2.12-3.21A4.81,4.81,0,0,1,684.78,226.1Z"/><path class="cls-47" d="M685.53,226.53a7.18,7.18,0,0,0-.75-.43,4.81,4.81,0,0,0-3.34-.53V224C682.83,224.76,684.2,225.62,685.53,226.53Z"/></g></svg>